EurostileRegular.ufo
<glyph name="exclam" format="1">
  <advance width="491"/>
  <unicode hex="0021"/>
  <outline>
    <contour>
      <point x="322" y="184" type="line"/>
      <point x="322" y="0" type="line"/>
      <point x="168" y="0" type="line"/>
      <point x="168" y="184" type="line"/>
    </contour>
    <contour>
      <point x="328" y="1365" type="line"/>
      <point x="308" y="377" type="line"/>
      <point x="177" y="377" type="line"/>
      <point x="160" y="1365" type="line"/>
    </contour>
  </outline>
</glyph>
<glyph name="numbersign" format="1">
  <advance width="1256"/>
  <unicode hex="0023"/>
  <outline>
    <contour>
      <point x="1101" y="525" type="line"/>
      <point x="1085" y="433" type="line"/>
      <point x="849" y="433" type="line"/>
      <point x="781" y="0" type="line"/>
      <point x="672" y="0" type="line"/>
      <point x="741" y="433" type="line"/>
      <point x="437" y="433" type="line"/>
      <point x="369" y="0" type="line"/>
      <point x="261" y="0" type="line"/>
      <point x="330" y="433" type="line"/>
      <point x="94" y="433" type="line"/>
      <point x="109" y="525" type="line"/>
      <point x="345" y="525" type="line"/>
      <point x="394" y="845" type="line"/>
      <point x="158" y="845" type="line"/>
      <point x="174" y="937" type="line"/>
      <point x="410" y="937" type="line"/>
      <point x="477" y="1365" type="line"/>
      <point x="585" y="1365" type="line"/>
      <point x="517" y="937" type="line"/>
      <point x="820" y="937" type="line"/>
      <point x="888" y="1365" type="line"/>
      <point x="997" y="1365" type="line"/>
      <point x="929" y="937" type="line"/>
      <point x="1163" y="937" type="line"/>
      <point x="1147" y="845" type="line"/>
      <point x="913" y="845" type="line"/>
      <point x="865" y="525" type="line"/>
    </contour>
    <contour>
      <point x="805" y="845" type="line"/>
      <point x="502" y="845" type="line"/>
      <point x="453" y="525" type="line"/>
      <point x="756" y="525" type="line"/>
    </contour>
  </outline>
</glyph>
<glyph name="percent" format="1">
  <advance width="1609"/>
  <unicode hex="0025"/>
  <outline>
    <contour>
      <point x="333" y="1370" type="qcurve" smooth="yes"/>
      <point x="538" y="1370"/>
      <point x="630" y="1263"/>
      <point x="630" y="1028" type="qcurve" smooth="yes"/>
      <point x="630" y="793"/>
      <point x="538" y="677"/>
      <point x="350" y="677" type="qcurve" smooth="yes"/>
      <point x="139" y="677"/>
      <point x="34" y="795"/>
      <point x="34" y="1032" type="qcurve" smooth="yes"/>
      <point x="34" y="1249"/>
      <point x="141" y="1370"/>
    </contour>
    <contour>
      <point x="331" y="1298" type="qcurve" smooth="yes"/>
      <point x="183" y="1298"/>
      <point x="119" y="1220"/>
      <point x="119" y="1041" type="qcurve" smooth="yes"/>
      <point x="119" y="823"/>
      <point x="186" y="749"/>
      <point x="386" y="749" type="qcurve" smooth="yes"/>
      <point x="545" y="749"/>
      <point x="545" y="908" type="qcurve" smooth="yes"/>
      <point x="545" y="1026" type="line"/>
      <point x="545" y="1137" type="line" smooth="yes"/>
      <point x="545" y="1246"/>
      <point x="476" y="1298"/>
    </contour>
    <contour>
      <point x="1315" y="1365" type="line"/>
      <point x="388" y="0" type="line"/>
      <point x="295" y="0" type="line"/>
      <point x="1216" y="1365" type="line"/>
    </contour>
    <contour>
      <point x="1274" y="688" type="qcurve" smooth="yes"/>
      <point x="1479" y="688"/>
      <point x="1571" y="581"/>
      <point x="1571" y="346" type="qcurve" smooth="yes"/>
      <point x="1571" y="110"/>
      <point x="1479" y="-5"/>
      <point x="1291" y="-5" type="qcurve" smooth="yes"/>
      <point x="1080" y="-5"/>
      <point x="975" y="113"/>
      <point x="975" y="350" type="qcurve" smooth="yes"/>
      <point x="975" y="567"/>
      <point x="1082" y="688"/>
    </contour>
    <contour>
      <point x="1272" y="616" type="qcurve" smooth="yes"/>
      <point x="1124" y="616"/>
      <point x="1060" y="538"/>
      <point x="1060" y="359" type="qcurve" smooth="yes"/>
      <point x="1060" y="141"/>
      <point x="1127" y="67"/>
      <point x="1327" y="67" type="qcurve" smooth="yes"/>
      <point x="1486" y="67"/>
      <point x="1486" y="226" type="qcurve" smooth="yes"/>
      <point x="1486" y="344" type="line"/>
      <point x="1486" y="455" type="line" smooth="yes"/>
      <point x="1486" y="564"/>
      <point x="1416" y="616"/>
    </contour>
  </outline>
</glyph>
<glyph name="quotesingle" format="1">
  <advance width="323"/>
  <unicode hex="0027"/>
  <outline>
    <contour>
      <point x="211" y="819" type="line"/>
      <point x="112" y="819" type="line"/>
      <point x="93" y="1365" type="line"/>
      <point x="231" y="1365" type="line"/>
    </contour>
  </outline>
</glyph>
<glyph name="parenleft" format="1">
  <advance width="568"/>
  <unicode hex="0028"/>
  <outline>
    <contour>
      <point x="465" y="-286" type="qcurve"/>
      <point x="465" y="-416" type="line"/>
      <point x="427" y="-417" type="line"/>
      <point x="194" y="-417"/>
      <point x="103" y="-167"/>
      <point x="103" y="478" type="qcurve" smooth="yes"/>
      <point x="103" y="1123"/>
      <point x="194" y="1373"/>
      <point x="427" y="1373" type="qcurve"/>
      <point x="465" y="1372" type="line"/>
      <point x="465" y="1242" type="line"/>
      <point x="319" y="1242"/>
      <point x="262" y="1096"/>
      <point x="262" y="722" type="qcurve" smooth="yes"/>
      <point x="263" y="478" type="line"/>
      <point x="263" y="233" type="line" smooth="yes"/>
      <point x="263" y="-140"/>
      <point x="320" y="-286"/>
    </contour>
  </outline>
</glyph>
<glyph name="parenright" format="1">
  <advance width="568"/>
  <unicode hex="0029"/>
  <outline>
    <contour>
      <point x="102" y="1242" type="qcurve"/>
      <point x="102" y="1372" type="line"/>
      <point x="140" y="1373" type="line"/>
      <point x="373" y="1373"/>
      <point x="464" y="1123"/>
      <point x="464" y="478" type="qcurve" smooth="yes"/>
      <point x="464" y="-167"/>
      <point x="373" y="-417"/>
      <point x="140" y="-417" type="qcurve"/>
      <point x="102" y="-416" type="line"/>
      <point x="102" y="-286" type="line"/>
      <point x="247" y="-286"/>
      <point x="304" y="-140"/>
      <point x="304" y="233" type="qcurve" smooth="yes"/>
      <point x="304" y="478" type="line"/>
      <point x="305" y="722" type="line" smooth="yes"/>
      <point x="305" y="1096"/>
      <point x="248" y="1242"/>
    </contour>
  </outline>
</glyph>
<glyph name="asterisk" format="1">
  <advance width="1257"/>
  <unicode hex="002A"/>
  <outline>
    <contour>
      <point x="994" y="1074" type="line"/>
      <point x="713" y="969" type="line"/>
      <point x="880" y="731" type="line"/>
      <point x="800" y="671" type="line"/>
      <point x="630" y="918" type="line"/>
      <point x="447" y="671" type="line"/>
      <point x="367" y="731" type="line"/>
      <point x="542" y="969" type="line"/>
      <point x="263" y="1074" type="line"/>
      <point x="298" y="1174" type="line"/>
      <point x="578" y="1074" type="line"/>
      <point x="578" y="1365" type="line"/>
      <point x="680" y="1365" type="line"/>
      <point x="680" y="1074" type="line"/>
      <point x="958" y="1174" type="line"/>
    </contour>
  </outline>
</glyph>
<glyph name="hyphen" format="1">
  <advance width="425"/>
  <unicode hex="002D"/>
  <unicode hex="00AD"/>
  <outline>
    <contour>
      <point x="3" y="562" type="line"/>
      <point x="425" y="562" type="line"/>
      <point x="425" y="432" type="line"/>
      <point x="0" y="432" type="line"/>
    </contour>
  </outline>
</glyph>
<glyph name="slash" format="1">
  <advance width="1323"/>
  <unicode hex="002F"/>
  <outline>
    <contour>
      <point x="1179" y="1365" type="line"/>
      <point x="-21" y="-410" type="line"/>
      <point x="-136" y="-410" type="line"/>
      <point x="1065" y="1365" type="line"/>
    </contour>
  </outline>
</glyph>
<glyph name="one" format="1">
  <advance width="1257"/>
  <unicode hex="0031"/>
  <outline>
    <contour>
      <point x="810" y="1365" type="line"/>
      <point x="810" y="0" type="line"/>
      <point x="656" y="0" type="line"/>
      <point x="656" y="1250" type="line"/>
      <point x="307" y="863" type="line"/>
      <point x="210" y="955" type="line"/>
      <point x="588" y="1365" type="line"/>
    </contour>
  </outline>
</glyph>
<glyph name="two" format="1">
  <advance width="1256"/>
  <unicode hex="0032"/>
  <outline>
    <contour>
      <point x="1094" y="130" type="line"/>
      <point x="1094" y="0" type="line"/>
      <point x="111" y="0" type="line"/>
      <point x="111" y="257" type="line" smooth="yes"/>
      <point x="111" y="473"/>
      <point x="279" y="607"/>
      <point x="594" y="643" type="qcurve" smooth="yes"/>
      <point x="846" y="671"/>
      <point x="951" y="767"/>
      <point x="951" y="968" type="qcurve" smooth="yes"/>
      <point x="951" y="1144"/>
      <point x="834" y="1249"/>
      <point x="637" y="1249" type="qcurve" smooth="yes"/>
      <point x="391" y="1249"/>
      <point x="262" y="1164"/>
      <point x="262" y="1002" type="qcurve" smooth="yes"/>
      <point x="264" y="900" type="line"/>
      <point x="113" y="900" type="line"/>
      <point x="114" y="971" type="line" smooth="yes"/>
      <point x="114" y="1216"/>
      <point x="321" y="1379"/>
      <point x="632" y="1379" type="qcurve" smooth="yes"/>
      <point x="908" y="1379"/>
      <point x="1098" y="1203"/>
      <point x="1098" y="948" type="qcurve" smooth="yes"/>
      <point x="1098" y="703"/>
      <point x="921" y="538"/>
      <point x="625" y="509" type="qcurve" smooth="yes"/>
      <point x="365" y="483"/>
      <point x="265" y="391"/>
      <point x="265" y="176" type="qcurve" smooth="yes"/>
      <point x="265" y="130" type="line"/>
    </contour>
  </outline>
</glyph>
<glyph name="three" format="1">
  <advance width="1256"/>
  <unicode hex="0033"/>
  <outline>
    <contour>
      <point x="500" y="633" type="line"/>
      <point x="500" y="764" type="line"/>
      <point x="552" y="763" type="line"/>
      <point x="828" y="763"/>
      <point x="951" y="833"/>
      <point x="951" y="989" type="qcurve" smooth="yes"/>
      <point x="951" y="1169"/>
      <point x="844" y="1249"/>
      <point x="602" y="1249" type="qcurve" smooth="yes"/>
      <point x="379" y="1249"/>
      <point x="274" y="1171"/>
      <point x="274" y="1005" type="qcurve" smooth="yes"/>
      <point x="274" y="946" type="line"/>
      <point x="128" y="946" type="line"/>
      <point x="129" y="1000" type="line"/>
      <point x="129" y="1234"/>
      <point x="311" y="1379"/>
      <point x="604" y="1379" type="qcurve" smooth="yes"/>
      <point x="905" y="1379"/>
      <point x="1098" y="1244"/>
      <point x="1098" y="1033" type="qcurve" smooth="yes"/>
      <point x="1098" y="854"/>
      <point x="1006" y="722"/>
      <point x="868" y="705" type="qcurve"/>
      <point x="868" y="698" type="line"/>
      <point x="1023" y="677"/>
      <point x="1124" y="551"/>
      <point x="1124" y="380" type="qcurve" smooth="yes"/>
      <point x="1124" y="142"/>
      <point x="927" y="-14"/>
      <point x="628" y="-14" type="qcurve" smooth="yes"/>
      <point x="305" y="-14"/>
      <point x="105" y="130"/>
      <point x="105" y="363" type="qcurve" smooth="yes"/>
      <point x="105" y="444" type="line"/>
      <point x="255" y="444" type="line"/>
      <point x="255" y="365" type="line" smooth="yes"/>
      <point x="255" y="191"/>
      <point x="373" y="116"/>
      <point x="649" y="116" type="qcurve" smooth="yes"/>
      <point x="863" y="116"/>
      <point x="977" y="211"/>
      <point x="977" y="391" type="qcurve" smooth="yes"/>
      <point x="977" y="542"/>
      <point x="869" y="633"/>
      <point x="688" y="633" type="qcurve" smooth="yes"/>
      <point x="558" y="633" type="line"/>
    </contour>
  </outline>
</glyph>
<glyph name="four" format="1">
  <advance width="1256"/>
  <unicode hex="0034"/>
  <outline>
    <contour>
      <point x="972" y="1365" type="line"/>
      <point x="972" y="445" type="line"/>
      <point x="1176" y="445" type="line"/>
      <point x="1176" y="315" type="line"/>
      <point x="972" y="315" type="line"/>
      <point x="972" y="0" type="line"/>
      <point x="818" y="0" type="line"/>
      <point x="818" y="315" type="line"/>
      <point x="54" y="315" type="line"/>
      <point x="54" y="496" type="line"/>
      <point x="734" y="1365" type="line"/>
    </contour>
    <contour>
      <point x="818" y="445" type="line"/>
      <point x="818" y="1266" type="line"/>
      <point x="815" y="1266" type="line"/>
      <point x="181" y="445" type="line"/>
    </contour>
  </outline>
</glyph>
<glyph name="five" format="1">
  <advance width="1256"/>
  <unicode hex="0035"/>
  <outline>
    <contour>
      <point x="1077" y="1365" type="line"/>
      <point x="1077" y="1235" type="line"/>
      <point x="311" y="1235" type="line"/>
      <point x="304" y="821" type="line"/>
      <point x="307" y="821" type="line"/>
      <point x="387" y="934"/>
      <point x="666" y="934" type="qcurve" smooth="yes"/>
      <point x="936" y="934"/>
      <point x="1133" y="748"/>
      <point x="1133" y="491" type="qcurve" smooth="yes"/>
      <point x="1133" y="177"/>
      <point x="946" y="-14"/>
      <point x="641" y="-14" type="qcurve" smooth="yes"/>
      <point x="338" y="-14"/>
      <point x="133" y="128"/>
      <point x="133" y="338" type="qcurve" smooth="yes"/>
      <point x="133" y="390" type="line"/>
      <point x="278" y="390" type="line"/>
      <point x="278" y="205"/>
      <point x="393" y="116"/>
      <point x="629" y="116" type="qcurve" smooth="yes"/>
      <point x="876" y="116"/>
      <point x="986" y="230"/>
      <point x="986" y="485" type="qcurve" smooth="yes"/>
      <point x="986" y="691"/>
      <point x="863" y="804"/>
      <point x="639" y="804" type="qcurve" smooth="yes"/>
      <point x="327" y="804"/>
      <point x="297" y="673" type="qcurve"/>
      <point x="158" y="673" type="line"/>
      <point x="158" y="1365" type="line"/>
    </contour>
  </outline>
</glyph>
<glyph name="six" format="1">
  <advance width="1255"/>
  <unicode hex="0036"/>
  <outline>
    <contour>
      <point x="1082" y="1020" type="line"/>
      <point x="932" y="1020" type="line"/>
      <point x="936" y="1057"/>
      <point x="936" y="1069" type="qcurve" smooth="yes"/>
      <point x="936" y="1178"/>
      <point x="826" y="1249"/>
      <point x="656" y="1249" type="qcurve" smooth="yes"/>
      <point x="398" y="1249"/>
      <point x="261" y="1161"/>
      <point x="261" y="996" type="qcurve" smooth="yes"/>
      <point x="261" y="718" type="line"/>
      <point x="264" y="718" type="line"/>
      <point x="351" y="840"/>
      <point x="657" y="840" type="qcurve" smooth="yes"/>
      <point x="932" y="840"/>
      <point x="1118" y="672"/>
      <point x="1118" y="424" type="qcurve" smooth="yes"/>
      <point x="1118" y="155"/>
      <point x="924" y="-14"/>
      <point x="615" y="-14" type="qcurve" smooth="yes"/>
      <point x="300" y="-14"/>
      <point x="102" y="171"/>
      <point x="102" y="466" type="qcurve" smooth="yes"/>
      <point x="99" y="714" type="line"/>
      <point x="103" y="934" type="line"/>
      <point x="103" y="1204"/>
      <point x="291" y="1379"/>
      <point x="581" y="1379" type="qcurve" smooth="yes"/>
      <point x="874" y="1379"/>
      <point x="1083" y="1249"/>
      <point x="1083" y="1067" type="qcurve" smooth="yes"/>
    </contour>
    <contour>
      <point x="608" y="710" type="qcurve" smooth="yes"/>
      <point x="383" y="710"/>
      <point x="246" y="620"/>
      <point x="246" y="472" type="qcurve" smooth="yes"/>
      <point x="246" y="232"/>
      <point x="366" y="116"/>
      <point x="613" y="116" type="qcurve" smooth="yes"/>
      <point x="853" y="116"/>
      <point x="971" y="210"/>
      <point x="971" y="404" type="qcurve" smooth="yes"/>
      <point x="971" y="612"/>
      <point x="855" y="710"/>
    </contour>
  </outline>
</glyph>
<glyph name="eight" format="1">
  <advance width="1257"/>
  <unicode hex="0038"/>
  <outline>
    <contour>
      <point x="890" y="709" type="qcurve"/>
      <point x="890" y="706" type="line"/>
      <point x="1034" y="677"/>
      <point x="1123" y="556"/>
      <point x="1123" y="391" type="qcurve" smooth="yes"/>
      <point x="1123" y="141"/>
      <point x="935" y="-14"/>
      <point x="632" y="-14" type="qcurve" smooth="yes"/>
      <point x="299" y="-14"/>
      <point x="104" y="129"/>
      <point x="104" y="373" type="qcurve" smooth="yes"/>
      <point x="104" y="552"/>
      <point x="194" y="680"/>
      <point x="341" y="708" type="qcurve"/>
      <point x="341" y="711" type="line"/>
      <point x="206" y="740"/>
      <point x="122" y="861"/>
      <point x="122" y="1027" type="qcurve" smooth="yes"/>
      <point x="122" y="1244"/>
      <point x="306" y="1379"/>
      <point x="600" y="1379" type="qcurve" smooth="yes"/>
      <point x="924" y="1379"/>
      <point x="1108" y="1248"/>
      <point x="1108" y="1016" type="qcurve" smooth="yes"/>
      <point x="1108" y="860"/>
      <point x="1021" y="738"/>
    </contour>
    <contour>
      <point x="602" y="1249" type="qcurve" smooth="yes"/>
      <point x="369" y="1249"/>
      <point x="269" y="1176"/>
      <point x="269" y="1007" type="qcurve" smooth="yes"/>
      <point x="269" y="842"/>
      <point x="393" y="769"/>
      <point x="672" y="769" type="qcurve" smooth="yes"/>
      <point x="858" y="769"/>
      <point x="961" y="861"/>
      <point x="961" y="1026" type="qcurve" smooth="yes"/>
      <point x="961" y="1179"/>
      <point x="848" y="1249"/>
    </contour>
    <contour>
      <point x="604" y="639" type="qcurve" smooth="yes"/>
      <point x="367" y="639"/>
      <point x="251" y="555"/>
      <point x="251" y="383" type="qcurve" smooth="yes"/>
      <point x="251" y="220"/>
      <point x="336" y="119"/>
      <point x="474" y="119" type="qcurve" smooth="yes"/>
      <point x="667" y="116" type="line"/>
      <point x="795" y="124" type="line"/>
      <point x="906" y="138"/>
      <point x="976" y="246"/>
      <point x="976" y="404" type="qcurve" smooth="yes"/>
      <point x="976" y="557"/>
      <point x="846" y="639"/>
    </contour>
  </outline>
</glyph>
<glyph name="nine" format="1">
  <advance width="1257"/>
  <unicode hex="0039"/>
  <outline>
    <contour>
      <point x="104" y="348" type="qcurve"/>
      <point x="249" y="348" type="line"/>
      <point x="248" y="308" type="line" smooth="yes"/>
      <point x="248" y="182"/>
      <point x="368" y="116"/>
      <point x="594" y="116" type="qcurve" smooth="yes"/>
      <point x="852" y="116"/>
      <point x="966" y="217"/>
      <point x="966" y="446" type="qcurve" smooth="yes"/>
      <point x="966" y="651" type="line"/>
      <point x="963" y="651" type="line"/>
      <point x="883" y="529"/>
      <point x="553" y="529" type="qcurve" smooth="yes"/>
      <point x="293" y="529"/>
      <point x="113" y="695"/>
      <point x="113" y="934" type="qcurve" smooth="yes"/>
      <point x="113" y="1208"/>
      <point x="303" y="1379"/>
      <point x="607" y="1379" type="qcurve" smooth="yes"/>
      <point x="919" y="1379"/>
      <point x="1121" y="1201"/>
      <point x="1121" y="925" type="qcurve" smooth="yes"/>
      <point x="1125" y="558" type="line"/>
      <point x="1122" y="417" type="line"/>
      <point x="1122" y="155"/>
      <point x="924" y="-14"/>
      <point x="616" y="-14" type="qcurve" smooth="yes"/>
      <point x="313" y="-14"/>
      <point x="101" y="111"/>
      <point x="101" y="291" type="qcurve" smooth="yes"/>
      <point x="101" y="307"/>
    </contour>
    <contour>
      <point x="593" y="1249" type="qcurve" smooth="yes"/>
      <point x="370" y="1249"/>
      <point x="260" y="1152"/>
      <point x="260" y="955" type="qcurve" smooth="yes"/>
      <point x="260" y="762"/>
      <point x="368" y="659"/>
      <point x="572" y="659" type="qcurve" smooth="yes"/>
      <point x="837" y="659"/>
      <point x="965" y="742"/>
      <point x="965" y="913" type="qcurve" smooth="yes"/>
      <point x="965" y="1142"/>
      <point x="847" y="1249"/>
    </contour>
  </outline>
</glyph>
<glyph name="less" format="1">
  <advance width="887"/>
  <unicode hex="003C"/>
  <outline>
    <contour>
      <point x="887" y="1163" type="line"/>
      <point x="887" y="1023" type="line"/>
      <point x="150" y="689" type="line"/>
      <point x="887" y="354" type="line"/>
      <point x="887" y="215" type="line"/>
      <point x="0" y="628" type="line"/>
      <point x="0" y="750" type="line"/>
    </contour>
  </outline>
</glyph>
<glyph name="equal" format="1">
  <advance width="1256"/>
  <unicode hex="003D"/>
  <outline>
    <contour>
      <point x="155" y="918" type="line"/>
      <point x="1101" y="918" type="line"/>
      <point x="1101" y="788" type="line"/>
      <point x="155" y="788" type="line"/>
    </contour>
    <contour>
      <point x="155" y="577" type="line"/>
      <point x="1101" y="577" type="line"/>
      <point x="1101" y="447" type="line"/>
      <point x="155" y="447" type="line"/>
    </contour>
  </outline>
</glyph>
<glyph name="greater" format="1">
  <advance width="887"/>
  <unicode hex="003E"/>
  <outline>
    <contour>
      <point x="0" y="215" type="line"/>
      <point x="0" y="355" type="line"/>
      <point x="737" y="689" type="line"/>
      <point x="0" y="1023" type="line"/>
      <point x="0" y="1162" type="line"/>
      <point x="887" y="749" type="line"/>
      <point x="887" y="627" type="line"/>
    </contour>
  </outline>
</glyph>
<glyph name="at" format="1">
  <advance width="1290"/>
  <unicode hex="0040"/>
  <outline>
    <contour>
      <point x="837" y="969" type="line"/>
      <point x="939" y="969" type="line"/>
      <point x="939" y="498" type="line"/>
      <point x="941" y="455" type="line"/>
      <point x="941" y="347"/>
      <point x="1024" y="347" type="qcurve" smooth="yes"/>
      <point x="1123" y="347"/>
      <point x="1123" y="698" type="qcurve" smooth="yes"/>
      <point x="1123" y="994"/>
      <point x="989" y="1119"/>
      <point x="672" y="1119" type="qcurve" smooth="yes"/>
      <point x="318" y="1119"/>
      <point x="167" y="971"/>
      <point x="167" y="625" type="qcurve" smooth="yes"/>
      <point x="167" y="257"/>
      <point x="334" y="93"/>
      <point x="711" y="93" type="qcurve" smooth="yes"/>
      <point x="967" y="93"/>
      <point x="1011" y="175" type="qcurve"/>
      <point x="1079" y="126" type="line"/>
      <point x="1019" y="21"/>
      <point x="694" y="21" type="qcurve" smooth="yes"/>
      <point x="299" y="21"/>
      <point x="82" y="234"/>
      <point x="82" y="623" type="qcurve" smooth="yes"/>
      <point x="82" y="1004"/>
      <point x="288" y="1208"/>
      <point x="672" y="1208" type="qcurve" smooth="yes"/>
      <point x="1011" y="1208"/>
      <point x="1208" y="1038"/>
      <point x="1208" y="744" type="qcurve" smooth="yes"/>
      <point x="1208" y="476"/>
      <point x="1130" y="275"/>
      <point x="1026" y="275" type="qcurve" smooth="yes"/>
      <point x="881" y="275"/>
      <point x="858" y="385" type="qcurve"/>
      <point x="854" y="385" type="line"/>
      <point x="806" y="269"/>
      <point x="611" y="269" type="qcurve" smooth="yes"/>
      <point x="461" y="269"/>
      <point x="349" y="421"/>
      <point x="349" y="625" type="qcurve" smooth="yes"/>
      <point x="349" y="823"/>
      <point x="462" y="969"/>
      <point x="614" y="969" type="qcurve" smooth="yes"/>
      <point x="791" y="969"/>
      <point x="834" y="875" type="qcurve"/>
      <point x="837" y="875" type="line"/>
    </contour>
    <contour>
      <point x="643" y="897" type="qcurve" smooth="yes"/>
      <point x="521" y="897"/>
      <point x="451" y="797"/>
      <point x="451" y="622" type="qcurve" smooth="yes"/>
      <point x="451" y="450"/>
      <point x="521" y="341"/>
      <point x="633" y="341" type="qcurve" smooth="yes"/>
      <point x="768" y="341"/>
      <point x="836" y="454"/>
      <point x="836" y="680" type="qcurve" smooth="yes"/>
      <point x="836" y="897"/>
    </contour>
  </outline>
</glyph>
<glyph name="D" format="1">
  <advance width="1338"/>
  <unicode hex="0044"/>
  <outline>
    <contour>
      <point x="130" y="0" type="line"/>
      <point x="130" y="1365" type="line"/>
      <point x="762" y="1365" type="line" smooth="yes"/>
      <point x="1055" y="1365"/>
      <point x="1263" y="1107"/>
      <point x="1263" y="742" type="qcurve" smooth="yes"/>
      <point x="1263" y="298"/>
      <point x="1078" y="0"/>
      <point x="801" y="0" type="qcurve" smooth="yes"/>
    </contour>
    <contour>
      <point x="284" y="130" type="line"/>
      <point x="729" y="130" type="line" smooth="yes"/>
      <point x="974" y="130"/>
      <point x="1116" y="326"/>
      <point x="1116" y="665" type="qcurve" smooth="yes"/>
      <point x="1116" y="1037"/>
      <point x="993" y="1235"/>
      <point x="760" y="1235" type="qcurve" smooth="yes"/>
      <point x="284" y="1235" type="line"/>
    </contour>
  </outline>
</glyph>
<glyph name="H" format="1">
  <advance width="1365"/>
  <unicode hex="0048"/>
  <outline>
    <contour>
      <point x="1236" y="1365" type="line"/>
      <point x="1236" y="0" type="line"/>
      <point x="1082" y="0" type="line"/>
      <point x="1082" y="633" type="line"/>
      <point x="284" y="633" type="line"/>
      <point x="284" y="0" type="line"/>
      <point x="130" y="0" type="line"/>
      <point x="130" y="1365" type="line"/>
      <point x="284" y="1365" type="line"/>
      <point x="284" y="763" type="line"/>
      <point x="1082" y="763" type="line"/>
      <point x="1082" y="1365" type="line"/>
    </contour>
  </outline>
</glyph>
<glyph name="K" format="1">
  <advance width="1235"/>
  <unicode hex="004B"/>
  <outline>
    <contour>
      <point x="284" y="1365" type="line"/>
      <point x="284" y="769" type="line"/>
      <point x="419" y="769" type="line"/>
      <point x="979" y="1365" type="line"/>
      <point x="1178" y="1365" type="line"/>
      <point x="554" y="707" type="line"/>
      <point x="1254" y="0" type="line"/>
      <point x="1043" y="0" type="line"/>
      <point x="419" y="639" type="line"/>
      <point x="284" y="639" type="line"/>
      <point x="284" y="0" type="line"/>
      <point x="130" y="0" type="line"/>
      <point x="130" y="1365" type="line"/>
    </contour>
  </outline>
</glyph>
<glyph name="M" format="1">
  <advance width="1757"/>
  <unicode hex="004D"/>
  <outline>
    <contour>
      <point x="1628" y="1365" type="line"/>
      <point x="1628" y="0" type="line"/>
      <point x="1474" y="0" type="line"/>
      <point x="1474" y="1092" type="line"/>
      <point x="1474" y="1174" type="line"/>
      <point x="1475" y="1215" type="line"/>
      <point x="1476" y="1256" type="line"/>
      <point x="1472" y="1256" type="line"/>
      <point x="1460" y="1224" type="line" smooth="yes"/>
      <point x="1451" y="1200"/>
      <point x="1448" y="1193" type="qcurve" smooth="yes"/>
      <point x="1422" y="1129" type="line"/>
      <point x="957" y="0" type="line"/>
      <point x="803" y="0" type="line"/>
      <point x="337" y="1116" type="line"/>
      <point x="310" y="1179" type="line"/>
      <point x="298" y="1211" type="line" smooth="yes"/>
      <point x="293" y="1222"/>
      <point x="286" y="1242" type="qcurve"/>
      <point x="282" y="1242" type="line"/>
      <point x="283" y="1205" type="line"/>
      <point x="284" y="1167" type="line"/>
      <point x="284" y="1092" type="line"/>
      <point x="284" y="0" type="line"/>
      <point x="130" y="0" type="line"/>
      <point x="130" y="1365" type="line"/>
      <point x="397" y="1365" type="line"/>
      <point x="761" y="482" type="line"/>
      <point x="819" y="339" type="line"/>
      <point x="848" y="268" type="line"/>
      <point x="876" y="197" type="line"/>
      <point x="880" y="197" type="line"/>
      <point x="908" y="268" type="line" smooth="yes"/>
      <point x="929" y="319"/>
      <point x="936" y="339" type="qcurve" smooth="yes"/>
      <point x="995" y="481" type="line"/>
      <point x="1357" y="1365" type="line"/>
    </contour>
  </outline>
</glyph>
<glyph name="O" format="1">
  <advance width="1256"/>
  <unicode hex="004F"/>
  <outline>
    <contour>
      <point x="629" y="1379" type="qcurve" smooth="yes"/>
      <point x="1016" y="1379"/>
      <point x="1210" y="1153"/>
      <point x="1210" y="701" type="qcurve" smooth="yes"/>
      <point x="1210" y="214"/>
      <point x="1024" y="-14"/>
      <point x="629" y="-14" type="qcurve" smooth="yes"/>
      <point x="236" y="-14"/>
      <point x="47" y="212"/>
      <point x="47" y="683" type="qcurve" smooth="yes"/>
      <point x="47" y="779" type="line"/>
      <point x="49" y="908" type="line"/>
      <point x="49" y="1180"/>
      <point x="294" y="1379"/>
    </contour>
    <contour>
      <point x="628" y="1249" type="qcurve" smooth="yes"/>
      <point x="304" y="1249"/>
      <point x="194" y="1105"/>
      <point x="194" y="683" type="qcurve" smooth="yes"/>
      <point x="194" y="260"/>
      <point x="304" y="116"/>
      <point x="628" y="116" type="qcurve" smooth="yes"/>
      <point x="953" y="116"/>
      <point x="1063" y="260"/>
      <point x="1063" y="683" type="qcurve" smooth="yes"/>
      <point x="1063" y="772" type="line"/>
      <point x="1062" y="901" type="line" smooth="yes"/>
      <point x="1062" y="1127"/>
      <point x="910" y="1249"/>
    </contour>
  </outline>
</glyph>
<glyph name="Q" format="1">
  <advance width="1342"/>
  <unicode hex="0051"/>
  <outline>
    <contour>
      <point x="1322" y="167" type="line"/>
      <point x="1259" y="62" type="line"/>
      <point x="1137" y="141" type="line"/>
      <point x="1027" y="-14"/>
      <point x="630" y="-14" type="qcurve" smooth="yes"/>
      <point x="225" y="-14"/>
      <point x="48" y="215"/>
      <point x="48" y="738" type="qcurve" smooth="yes"/>
      <point x="48" y="1156"/>
      <point x="250" y="1379"/>
      <point x="630" y="1379" type="qcurve" smooth="yes"/>
      <point x="1017" y="1379"/>
      <point x="1211" y="1153"/>
      <point x="1211" y="701" type="qcurve" smooth="yes"/>
      <point x="1211" y="362"/>
      <point x="1186" y="257" type="qcurve"/>
    </contour>
    <contour>
      <point x="606" y="489" type="line"/>
      <point x="677" y="594" type="line"/>
      <point x="1050" y="347" type="line"/>
      <point x="1064" y="420"/>
      <point x="1064" y="605" type="qcurve" smooth="yes"/>
      <point x="1064" y="1099"/>
      <point x="963" y="1249"/>
      <point x="629" y="1249" type="qcurve" smooth="yes"/>
      <point x="305" y="1249"/>
      <point x="195" y="1105"/>
      <point x="195" y="683" type="qcurve" smooth="yes"/>
      <point x="195" y="260"/>
      <point x="305" y="116"/>
      <point x="627" y="116" type="qcurve" smooth="yes"/>
      <point x="947" y="116"/>
      <point x="1015" y="221" type="qcurve"/>
    </contour>
  </outline>
</glyph>
<glyph name="W" format="1">
  <advance width="2045"/>
  <unicode hex="0057"/>
  <outline>
    <contour>
      <point x="2041" y="1365" type="line"/>
      <point x="1611" y="0" type="line"/>
      <point x="1377" y="0" type="line"/>
      <point x="1090" y="983" type="line"/>
      <point x="1054" y="1106" type="line" smooth="yes"/>
      <point x="1051" y="1116"/>
      <point x="1037" y="1167" type="qcurve" smooth="yes"/>
      <point x="1019" y="1229" type="line"/>
      <point x="1016" y="1229" type="line"/>
      <point x="999" y="1167" type="line"/>
      <point x="981" y="1105" type="line"/>
      <point x="944" y="981" type="line"/>
      <point x="652" y="0" type="line"/>
      <point x="422" y="0" type="line"/>
      <point x="3" y="1365" type="line"/>
      <point x="161" y="1365" type="line"/>
      <point x="455" y="384" type="line"/>
      <point x="495" y="251" type="line" smooth="yes"/>
      <point x="500" y="235"/>
      <point x="515" y="185" type="qcurve" smooth="yes"/>
      <point x="534" y="118" type="line"/>
      <point x="537" y="118" type="line"/>
      <point x="556" y="185" type="line"/>
      <point x="575" y="251" type="line"/>
      <point x="614" y="383" type="line"/>
      <point x="904" y="1365" type="line"/>
      <point x="1132" y="1365" type="line"/>
      <point x="1420" y="382" type="line"/>
      <point x="1459" y="251" type="line"/>
      <point x="1477" y="184" type="line"/>
      <point x="1496" y="118" type="line"/>
      <point x="1499" y="118" type="line"/>
      <point x="1519" y="185" type="line"/>
      <point x="1539" y="252" type="line"/>
      <point x="1580" y="386" type="line"/>
      <point x="1880" y="1365" type="line"/>
    </contour>
  </outline>
</glyph>
<glyph name="X" format="1">
  <advance width="1190"/>
  <unicode hex="0058"/>
  <outline>
    <contour>
      <point x="1167" y="1365" type="line"/>
      <point x="731" y="706" type="line"/>
      <point x="1200" y="0" type="line"/>
      <point x="1018" y="0" type="line"/>
      <point x="702" y="478" type="line"/>
      <point x="652" y="553" type="line" smooth="yes"/>
      <point x="648" y="559"/>
      <point x="629" y="590" type="qcurve" smooth="yes"/>
      <point x="605" y="628" type="line"/>
      <point x="601" y="628" type="line"/>
      <point x="577" y="589" type="line" smooth="yes"/>
      <point x="557" y="560"/>
      <point x="552" y="551" type="qcurve" smooth="yes"/>
      <point x="500" y="475" type="line"/>
      <point x="179" y="0" type="line"/>
      <point x="-10" y="0" type="line"/>
      <point x="478" y="706" type="line"/>
      <point x="29" y="1365" type="line"/>
      <point x="215" y="1365" type="line"/>
      <point x="518" y="910" type="line"/>
      <point x="560" y="846" type="line" smooth="yes"/>
      <point x="568" y="834"/>
      <point x="581" y="814" type="qcurve" smooth="yes"/>
      <point x="601" y="782" type="line"/>
      <point x="605" y="782" type="line"/>
      <point x="625" y="813" type="line" smooth="yes"/>
      <point x="641" y="840"/>
      <point x="645" y="845" type="qcurve" smooth="yes"/>
      <point x="686" y="908" type="line"/>
      <point x="985" y="1365" type="line"/>
    </contour>
  </outline>
</glyph>
<glyph name="bracketleft" format="1">
  <advance width="567"/>
  <unicode hex="005B"/>
  <outline>
    <contour>
      <point x="113" y="1365" type="line"/>
      <point x="462" y="1365" type="line"/>
      <point x="462" y="1249" type="line"/>
      <point x="267" y="1249" type="line"/>
      <point x="267" y="-294" type="line"/>
      <point x="462" y="-294" type="line"/>
      <point x="462" y="-410" type="line"/>
      <point x="113" y="-410" type="line"/>
    </contour>
  </outline>
</glyph>
<glyph name="bracketright" format="1">
  <advance width="567"/>
  <unicode hex="005D"/>
  <outline>
    <contour>
      <point x="454" y="-410" type="line"/>
      <point x="105" y="-410" type="line"/>
      <point x="105" y="-294" type="line"/>
      <point x="300" y="-294" type="line"/>
      <point x="300" y="1249" type="line"/>
      <point x="105" y="1249" type="line"/>
      <point x="105" y="1365" type="line"/>
      <point x="454" y="1365" type="line"/>
    </contour>
  </outline>
</glyph>
<glyph name="d" format="1">
  <advance width="1045"/>
  <unicode hex="0064"/>
  <outline>
    <contour>
      <point x="922" y="1365" type="line"/>
      <point x="922" y="0" type="line"/>
      <point x="782" y="0" type="line"/>
      <point x="789" y="124" type="line"/>
      <point x="785" y="125" type="line"/>
      <point x="719" y="-14"/>
      <point x="478" y="-14" type="qcurve" smooth="yes"/>
      <point x="258" y="-14"/>
      <point x="97" y="200"/>
      <point x="97" y="492" type="qcurve" smooth="yes"/>
      <point x="97" y="761"/>
      <point x="259" y="970"/>
      <point x="468" y="970" type="qcurve" smooth="yes"/>
      <point x="729" y="970"/>
      <point x="779" y="835" type="qcurve"/>
      <point x="782" y="837" type="line"/>
      <point x="782" y="1365" type="line"/>
    </contour>
    <contour>
      <point x="501" y="854" type="qcurve" smooth="yes"/>
      <point x="346" y="854"/>
      <point x="244" y="711"/>
      <point x="244" y="493" type="qcurve" smooth="yes"/>
      <point x="244" y="253"/>
      <point x="345" y="102"/>
      <point x="504" y="102" type="qcurve" smooth="yes"/>
      <point x="677" y="102"/>
      <point x="781" y="253"/>
      <point x="781" y="506" type="qcurve" smooth="yes"/>
      <point x="781" y="711"/>
      <point x="666" y="854"/>
    </contour>
  </outline>
</glyph>
<glyph name="l" format="1">
  <advance width="386"/>
  <unicode hex="006C"/>
  <outline>
    <contour>
      <point x="263" y="1365" type="line"/>
      <point x="263" y="0" type="line"/>
      <point x="123" y="0" type="line"/>
      <point x="123" y="1365" type="line"/>
    </contour>
  </outline>
</glyph>
<glyph name="m" format="1">
  <advance width="1691"/>
  <unicode hex="006D"/>
  <outline>
    <contour>
      <point x="123" y="956" type="line"/>
      <point x="263" y="956" type="line"/>
      <point x="260" y="812" type="line"/>
      <point x="263" y="809" type="line"/>
      <point x="344" y="970"/>
      <point x="575" y="970" type="qcurve" smooth="yes"/>
      <point x="818" y="970"/>
      <point x="870" y="809" type="qcurve"/>
      <point x="874" y="809" type="line"/>
      <point x="964" y="970"/>
      <point x="1203" y="970" type="qcurve" smooth="yes"/>
      <point x="1541" y="970"/>
      <point x="1541" y="625" type="qcurve" smooth="yes"/>
      <point x="1541" y="0" type="line"/>
      <point x="1401" y="0" type="line"/>
      <point x="1401" y="638" type="line" smooth="yes"/>
      <point x="1401" y="764"/>
      <point x="1311" y="854"/>
      <point x="1186" y="854" type="qcurve" smooth="yes"/>
      <point x="1020" y="854"/>
      <point x="902" y="729"/>
      <point x="902" y="553" type="qcurve" smooth="yes"/>
      <point x="902" y="0" type="line"/>
      <point x="762" y="0" type="line"/>
      <point x="762" y="625" type="line"/>
      <point x="760" y="669" type="line"/>
      <point x="760" y="854"/>
      <point x="549" y="854" type="qcurve" smooth="yes"/>
      <point x="263" y="854"/>
      <point x="263" y="543" type="qcurve" smooth="yes"/>
      <point x="263" y="0" type="line"/>
      <point x="123" y="0" type="line"/>
    </contour>
  </outline>
</glyph>
<glyph name="n" format="1">
  <advance width="1056"/>
  <unicode hex="006E"/>
  <outline>
    <contour>
      <point x="123" y="956" type="line"/>
      <point x="258" y="956" type="line"/>
      <point x="254" y="826" type="line"/>
      <point x="258" y="823" type="line"/>
      <point x="322" y="970"/>
      <point x="576" y="970" type="qcurve" smooth="yes"/>
      <point x="781" y="970"/>
      <point x="926" y="826"/>
      <point x="926" y="622" type="qcurve" smooth="yes"/>
      <point x="926" y="0" type="line"/>
      <point x="786" y="0" type="line"/>
      <point x="786" y="610" type="line"/>
      <point x="786" y="646" type="line" smooth="yes"/>
      <point x="786" y="769"/>
      <point x="692" y="854"/>
      <point x="558" y="854" type="qcurve" smooth="yes"/>
      <point x="263" y="854"/>
      <point x="263" y="575" type="qcurve" smooth="yes"/>
      <point x="263" y="0" type="line"/>
      <point x="123" y="0" type="line"/>
    </contour>
  </outline>
</glyph>
<glyph name="p" format="1">
  <advance width="1045"/>
  <unicode hex="0070"/>
  <outline>
    <contour>
      <point x="123" y="956" type="line"/>
      <point x="263" y="956" type="line"/>
      <point x="256" y="835" type="line"/>
      <point x="260" y="832" type="line"/>
      <point x="333" y="970"/>
      <point x="574" y="970" type="qcurve" smooth="yes"/>
      <point x="787" y="970"/>
      <point x="947" y="754"/>
      <point x="947" y="464" type="qcurve" smooth="yes"/>
      <point x="947" y="195"/>
      <point x="785" y="-14"/>
      <point x="578" y="-14" type="qcurve" smooth="yes"/>
      <point x="342" y="-14"/>
      <point x="266" y="113" type="qcurve"/>
      <point x="263" y="113" type="line"/>
      <point x="263" y="-410" type="line"/>
      <point x="123" y="-410" type="line"/>
    </contour>
    <contour>
      <point x="535" y="854" type="qcurve" smooth="yes"/>
      <point x="367" y="854"/>
      <point x="265" y="709"/>
      <point x="265" y="470" type="qcurve" smooth="yes"/>
      <point x="265" y="249"/>
      <point x="375" y="102"/>
      <point x="541" y="102" type="qcurve" smooth="yes"/>
      <point x="699" y="102"/>
      <point x="800" y="244"/>
      <point x="800" y="466" type="qcurve" smooth="yes"/>
      <point x="800" y="710"/>
      <point x="702" y="854"/>
    </contour>
  </outline>
</glyph>
<glyph name="q" format="1">
  <advance width="1044"/>
  <unicode hex="0071"/>
  <outline>
    <contour>
      <point x="922" y="956" type="line"/>
      <point x="922" y="-410" type="line"/>
      <point x="782" y="-410" type="line"/>
      <point x="782" y="116" type="line"/>
      <point x="779" y="119" type="line"/>
      <point x="716" y="-14"/>
      <point x="465" y="-14" type="qcurve" smooth="yes"/>
      <point x="258" y="-14"/>
      <point x="96" y="202"/>
      <point x="96" y="479" type="qcurve" smooth="yes"/>
      <point x="96" y="756"/>
      <point x="260" y="970"/>
      <point x="473" y="970" type="qcurve" smooth="yes"/>
      <point x="707" y="970"/>
      <point x="786" y="835" type="qcurve"/>
      <point x="789" y="838" type="line"/>
      <point x="782" y="956" type="line"/>
    </contour>
    <contour>
      <point x="495" y="854" type="qcurve" smooth="yes"/>
      <point x="340" y="854"/>
      <point x="243" y="704"/>
      <point x="243" y="465" type="qcurve" smooth="yes"/>
      <point x="243" y="241"/>
      <point x="343" y="102"/>
      <point x="503" y="102" type="qcurve" smooth="yes"/>
      <point x="666" y="102"/>
      <point x="778" y="245"/>
      <point x="778" y="455" type="qcurve" smooth="yes"/>
      <point x="778" y="709"/>
      <point x="675" y="854"/>
    </contour>
  </outline>
</glyph>
<glyph name="r" format="1">
  <advance width="816"/>
  <unicode hex="0072"/>
  <outline>
    <contour>
      <point x="137" y="956" type="line"/>
      <point x="277" y="956" type="line"/>
      <point x="263" y="846" type="line"/>
      <point x="266" y="843" type="line"/>
      <point x="349" y="978"/>
      <point x="540" y="978" type="qcurve" smooth="yes"/>
      <point x="804" y="978"/>
      <point x="804" y="706" type="qcurve"/>
      <point x="803" y="640" type="line"/>
      <point x="665" y="640" type="line"/>
      <point x="668" y="664" type="line" smooth="yes"/>
      <point x="671" y="702"/>
      <point x="671" y="715" type="qcurve" smooth="yes"/>
      <point x="671" y="862"/>
      <point x="511" y="862" type="qcurve" smooth="yes"/>
      <point x="277" y="862"/>
      <point x="277" y="573" type="qcurve" smooth="yes"/>
      <point x="277" y="0" type="line"/>
      <point x="137" y="0" type="line"/>
    </contour>
  </outline>
</glyph>
<glyph name="s" format="1">
  <advance width="970"/>
  <unicode hex="0073"/>
  <outline>
    <contour>
      <point x="864" y="706" type="line"/>
      <point x="724" y="706" type="line"/>
      <point x="724" y="806"/>
      <point x="643" y="854"/>
      <point x="475" y="854" type="qcurve" smooth="yes"/>
      <point x="319" y="854"/>
      <point x="235" y="803"/>
      <point x="235" y="706" type="qcurve" smooth="yes"/>
      <point x="235" y="559"/>
      <point x="376" y="552" type="qcurve" smooth="yes"/>
      <point x="489" y="546" type="line"/>
      <point x="632" y="539" type="line" smooth="yes"/>
      <point x="892" y="526"/>
      <point x="892" y="267" type="qcurve" smooth="yes"/>
      <point x="892" y="106"/>
      <point x="720" y="-14"/>
      <point x="491" y="-14" type="qcurve" smooth="yes"/>
      <point x="256" y="-14"/>
      <point x="79" y="100"/>
      <point x="79" y="252" type="qcurve" smooth="yes"/>
      <point x="80" y="304" type="line"/>
      <point x="225" y="304" type="line"/>
      <point x="226" y="259" type="line" smooth="yes"/>
      <point x="226" y="165"/>
      <point x="322" y="102"/>
      <point x="463" y="102" type="qcurve" smooth="yes"/>
      <point x="636" y="102"/>
      <point x="745" y="168"/>
      <point x="745" y="273" type="qcurve" smooth="yes"/>
      <point x="745" y="424"/>
      <point x="608" y="424" type="qcurve" smooth="yes"/>
      <point x="289" y="424"/>
      <point x="88" y="532"/>
      <point x="88" y="702" type="qcurve" smooth="yes"/>
      <point x="88" y="863"/>
      <point x="247" y="970"/>
      <point x="484" y="970" type="qcurve" smooth="yes"/>
      <point x="864" y="970"/>
      <point x="864" y="741" type="qcurve" smooth="yes"/>
    </contour>
  </outline>
</glyph>
<glyph name="u" format="1">
  <advance width="1039"/>
  <unicode hex="0075"/>
  <outline>
    <contour>
      <point x="903" y="956" type="line"/>
      <point x="903" y="0" type="line"/>
      <point x="763" y="0" type="line"/>
      <point x="773" y="125" type="line"/>
      <point x="770" y="128" type="line"/>
      <point x="697" y="-14"/>
      <point x="458" y="-14" type="qcurve" smooth="yes"/>
      <point x="123" y="-14"/>
      <point x="123" y="320" type="qcurve" smooth="yes"/>
      <point x="123" y="956" type="line"/>
      <point x="263" y="956" type="line"/>
      <point x="263" y="320" type="line" smooth="yes"/>
      <point x="263" y="190"/>
      <point x="349" y="102"/>
      <point x="475" y="102" type="qcurve" smooth="yes"/>
      <point x="640" y="102"/>
      <point x="763" y="233"/>
      <point x="763" y="408" type="qcurve" smooth="yes"/>
      <point x="763" y="956" type="line"/>
    </contour>
  </outline>
</glyph>
<glyph name="w" format="1">
  <advance width="1373"/>
  <unicode hex="0077"/>
  <outline>
    <contour>
      <point x="1367" y="956" type="line"/>
      <point x="1099" y="0" type="line"/>
      <point x="891" y="0" type="line"/>
      <point x="763" y="531" type="line"/>
      <point x="724" y="693" type="line"/>
      <point x="706" y="774" type="line"/>
      <point x="687" y="855" type="line"/>
      <point x="684" y="855" type="line"/>
      <point x="665" y="774" type="line"/>
      <point x="646" y="693" type="line"/>
      <point x="607" y="531" type="line"/>
      <point x="478" y="0" type="line"/>
      <point x="266" y="0" type="line"/>
      <point x="7" y="956" type="line"/>
      <point x="154" y="956" type="line"/>
      <point x="289" y="427" type="line"/>
      <point x="331" y="261" type="line"/>
      <point x="351" y="178" type="line"/>
      <point x="371" y="95" type="line"/>
      <point x="375" y="95" type="line"/>
      <point x="394" y="178" type="line"/>
      <point x="414" y="261" type="line"/>
      <point x="454" y="426" type="line"/>
      <point x="585" y="956" type="line"/>
      <point x="789" y="956" type="line"/>
      <point x="919" y="425" type="line"/>
      <point x="959" y="260" type="line"/>
      <point x="978" y="178" type="line"/>
      <point x="997" y="95" type="line"/>
      <point x="1000" y="95" type="line"/>
      <point x="1021" y="178" type="line"/>
      <point x="1041" y="261" type="line"/>
      <point x="1083" y="427" type="line"/>
      <point x="1217" y="956" type="line"/>
    </contour>
  </outline>
</glyph>
<glyph name="braceleft" format="1">
  <advance width="783"/>
  <unicode hex="007B"/>
  <outline>
    <contour>
      <point x="300" y="479" type="qcurve"/>
      <point x="428" y="418"/>
      <point x="428" y="241" type="qcurve" smooth="yes"/>
      <point x="428" y="-100" type="line" smooth="yes"/>
      <point x="428" y="-297"/>
      <point x="599" y="-297" type="qcurve" smooth="yes"/>
      <point x="613" y="-297" type="line"/>
      <point x="613" y="-410" type="line"/>
      <point x="525" y="-410" type="line" smooth="yes"/>
      <point x="288" y="-410"/>
      <point x="288" y="-103" type="qcurve" smooth="yes"/>
      <point x="288" y="235" type="line" smooth="yes"/>
      <point x="288" y="387"/>
      <point x="171" y="422" type="qcurve"/>
      <point x="171" y="535" type="line"/>
      <point x="288" y="569"/>
      <point x="288" y="723" type="qcurve" smooth="yes"/>
      <point x="288" y="1060" type="line" smooth="yes"/>
      <point x="288" y="1365"/>
      <point x="525" y="1365" type="qcurve" smooth="yes"/>
      <point x="613" y="1365" type="line"/>
      <point x="613" y="1254" type="line"/>
      <point x="428" y="1254"/>
      <point x="428" y="1057" type="qcurve" smooth="yes"/>
      <point x="428" y="716" type="line" smooth="yes"/>
      <point x="428" y="539"/>
    </contour>
  </outline>
</glyph>
<glyph name="bar" format="1">
  <advance width="140"/>
  <unicode hex="007C"/>
  <outline>
    <contour>
      <point x="0" y="1365" type="line"/>
      <point x="140" y="1365" type="line"/>
      <point x="140" y="-341" type="line"/>
      <point x="0" y="-341" type="line"/>
    </contour>
  </outline>
</glyph>
<glyph name="asciitilde" format="1">
  <advance width="984"/>
  <unicode hex="007E"/>
  <outline>
    <contour>
      <point x="84" y="1196" type="qcurve"/>
      <point x="0" y="1250" type="line"/>
      <point x="115" y="1482"/>
      <point x="279" y="1482" type="qcurve" smooth="yes"/>
      <point x="356" y="1482"/>
      <point x="509" y="1408" type="qcurve" smooth="yes"/>
      <point x="650" y="1339"/>
      <point x="711" y="1339" type="qcurve" smooth="yes"/>
      <point x="813" y="1339"/>
      <point x="898" y="1486" type="qcurve"/>
      <point x="984" y="1435" type="line"/>
      <point x="870" y="1209"/>
      <point x="698" y="1209" type="qcurve" smooth="yes"/>
      <point x="623" y="1209"/>
      <point x="524" y="1256" type="qcurve" smooth="yes"/>
      <point x="406" y="1311" type="line" smooth="yes"/>
      <point x="321" y="1352"/>
      <point x="267" y="1352" type="qcurve" smooth="yes"/>
      <point x="167" y="1352"/>
    </contour>
  </outline>
</glyph>
<glyph name="exclamdown" format="1">
  <advance width="491"/>
  <unicode hex="00A1"/>
  <outline>
    <contour>
      <point x="162" y="772" type="line"/>
      <point x="162" y="956" type="line"/>
      <point x="316" y="956" type="line"/>
      <point x="316" y="772" type="line"/>
    </contour>
    <contour>
      <point x="162" y="-410" type="line"/>
      <point x="182" y="579" type="line"/>
      <point x="313" y="579" type="line"/>
      <point x="330" y="-410" type="line"/>
    </contour>
  </outline>
</glyph>
<glyph name="cent" format="1">
  <advance width="1255"/>
  <unicode hex="00A2"/>
  <outline>
    <contour>
      <point x="662" y="1005" type="qcurve"/>
      <point x="662" y="255" type="line"/>
      <point x="876" y="255"/>
      <point x="876" y="444" type="qcurve" smooth="yes"/>
      <point x="877" y="497" type="line"/>
      <point x="1017" y="497" type="line"/>
      <point x="1016" y="460" type="line"/>
      <point x="1016" y="139"/>
      <point x="662" y="139" type="qcurve"/>
      <point x="662" y="-7" type="line"/>
      <point x="546" y="-7" type="line"/>
      <point x="546" y="139" type="line"/>
      <point x="336" y="139"/>
      <point x="183" y="358"/>
      <point x="183" y="658" type="qcurve" smooth="yes"/>
      <point x="183" y="1118"/>
      <point x="546" y="1118" type="qcurve"/>
      <point x="546" y="1251" type="line"/>
      <point x="662" y="1251" type="line"/>
      <point x="662" y="1118" type="line"/>
      <point x="998" y="1118"/>
      <point x="998" y="840" type="qcurve"/>
      <point x="997" y="796" type="line"/>
      <point x="857" y="796" type="line"/>
      <point x="857" y="923"/>
      <point x="786" y="999"/>
    </contour>
    <contour>
      <point x="546" y="1008" type="line"/>
      <point x="412" y="998"/>
      <point x="330" y="869"/>
      <point x="330" y="668" type="qcurve" smooth="yes"/>
      <point x="330" y="411"/>
      <point x="408" y="264"/>
      <point x="546" y="257" type="qcurve"/>
    </contour>
  </outline>
</glyph>
<glyph name="yen" format="1">
  <advance width="1257"/>
  <unicode hex="00A5"/>
  <outline>
    <contour>
      <point x="920" y="934" type="line"/>
      <point x="1106" y="934" type="line"/>
      <point x="1106" y="804" type="line"/>
      <point x="842" y="804" type="line"/>
      <point x="717" y="603" type="line"/>
      <point x="1106" y="603" type="line"/>
      <point x="1106" y="473" type="line"/>
      <point x="698" y="473" type="line"/>
      <point x="698" y="0" type="line"/>
      <point x="544" y="0" type="line"/>
      <point x="544" y="473" type="line"/>
      <point x="150" y="473" type="line"/>
      <point x="150" y="603" type="line"/>
      <point x="525" y="603" type="line"/>
      <point x="404" y="804" type="line"/>
      <point x="150" y="804" type="line"/>
      <point x="150" y="934" type="line"/>
      <point x="328" y="934" type="line"/>
      <point x="69" y="1365" type="line"/>
      <point x="248" y="1365" type="line"/>
      <point x="624" y="727" type="line"/>
      <point x="628" y="727" type="line"/>
      <point x="1004" y="1365" type="line"/>
      <point x="1187" y="1365" type="line"/>
    </contour>
  </outline>
</glyph>
<glyph name="brokenbar" format="1">
  <advance width="140"/>
  <unicode hex="00A6"/>
  <outline>
    <contour>
      <point x="0" y="1365" type="line"/>
      <point x="140" y="1365" type="line"/>
      <point x="140" y="686" type="line"/>
      <point x="0" y="686" type="line"/>
    </contour>
    <contour>
      <point x="0" y="314" type="line"/>
      <point x="140" y="314" type="line"/>
      <point x="140" y="-341" type="line"/>
      <point x="0" y="-341" type="line"/>
    </contour>
  </outline>
</glyph>
<glyph name="section" format="1">
  <advance width="1257"/>
  <unicode hex="00A7"/>
  <outline>
    <contour>
      <point x="1071" y="1017" type="qcurve"/>
      <point x="937" y="1017" type="line"/>
      <point x="936" y="1073" type="line" smooth="yes"/>
      <point x="936" y="1185"/>
      <point x="822" y="1249"/>
      <point x="622" y="1249" type="qcurve" smooth="yes"/>
      <point x="438" y="1249"/>
      <point x="340" y="1186"/>
      <point x="340" y="1068" type="qcurve" smooth="yes"/>
      <point x="340" y="920"/>
      <point x="440" y="889" type="qcurve" smooth="yes"/>
      <point x="528" y="863" type="line"/>
      <point x="834" y="772" type="line" smooth="yes"/>
      <point x="1009" y="721"/>
      <point x="1100" y="629"/>
      <point x="1100" y="504" type="qcurve" smooth="yes"/>
      <point x="1100" y="290"/>
      <point x="968" y="235" type="qcurve"/>
      <point x="1103" y="170"/>
      <point x="1103" y="-35" type="qcurve" smooth="yes"/>
      <point x="1103" y="-257"/>
      <point x="922" y="-393"/>
      <point x="625" y="-393" type="qcurve" smooth="yes"/>
      <point x="333" y="-393"/>
      <point x="161" y="-253"/>
      <point x="161" y="-14" type="qcurve"/>
      <point x="299" y="-14" type="line"/>
      <point x="299" y="-181"/>
      <point x="398" y="-263"/>
      <point x="602" y="-263" type="qcurve" smooth="yes"/>
      <point x="849" y="-263"/>
      <point x="970" y="-191"/>
      <point x="970" y="-45" type="qcurve" smooth="yes"/>
      <point x="970" y="52"/>
      <point x="905" y="119"/>
      <point x="779" y="153" type="qcurve" smooth="yes"/>
      <point x="358" y="264" type="line" smooth="yes"/>
      <point x="233" y="297"/>
      <point x="154" y="412"/>
      <point x="154" y="559" type="qcurve" smooth="yes"/>
      <point x="154" y="763"/>
      <point x="310" y="799" type="qcurve"/>
      <point x="207" y="865"/>
      <point x="207" y="1040" type="qcurve" smooth="yes"/>
      <point x="207" y="1248"/>
      <point x="360" y="1379"/>
      <point x="605" y="1379" type="qcurve" smooth="yes"/>
      <point x="912" y="1379"/>
      <point x="1071" y="1256"/>
    </contour>
    <contour>
      <point x="439" y="386" type="qcurve" smooth="yes"/>
      <point x="747" y="300" type="line" smooth="yes"/>
      <point x="808" y="283"/>
      <point x="849" y="283" type="qcurve" smooth="yes"/>
      <point x="967" y="283"/>
      <point x="967" y="492" type="qcurve" smooth="yes"/>
      <point x="967" y="592"/>
      <point x="804" y="640" type="qcurve" smooth="yes"/>
      <point x="509" y="727" type="line" smooth="yes"/>
      <point x="439" y="748"/>
      <point x="407" y="748" type="qcurve" smooth="yes"/>
      <point x="287" y="748"/>
      <point x="287" y="555" type="qcurve" smooth="yes"/>
      <point x="287" y="429"/>
    </contour>
  </outline>
</glyph>
<glyph name="copyright" format="1">
  <advance width="1527"/>
  <unicode hex="00A9"/>
  <outline>
    <contour>
      <point x="987" y="569" type="line"/>
      <point x="1090" y="569" type="line"/>
      <point x="1089" y="533" type="line"/>
      <point x="1089" y="373"/>
      <point x="976" y="292"/>
      <point x="752" y="292" type="qcurve" smooth="yes"/>
      <point x="548" y="292"/>
      <point x="437" y="432"/>
      <point x="437" y="690" type="qcurve" smooth="yes"/>
      <point x="437" y="967"/>
      <point x="551" y="1086"/>
      <point x="816" y="1086" type="qcurve" smooth="yes"/>
      <point x="1079" y="1086"/>
      <point x="1079" y="859" type="qcurve"/>
      <point x="1080" y="831" type="line"/>
      <point x="977" y="831" type="line"/>
      <point x="977" y="861" type="line" smooth="yes"/>
      <point x="977" y="949"/>
      <point x="918" y="997"/>
      <point x="810" y="997" type="qcurve" smooth="yes"/>
      <point x="620" y="997"/>
      <point x="539" y="939"/>
      <point x="539" y="804" type="qcurve" smooth="yes"/>
      <point x="539" y="487"/>
      <point x="593" y="381"/>
      <point x="756" y="381" type="qcurve" smooth="yes"/>
      <point x="913" y="381"/>
      <point x="988" y="425"/>
      <point x="988" y="517" type="qcurve" smooth="yes"/>
    </contour>
    <contour>
      <point x="765" y="1379" type="qcurve" smooth="yes"/>
      <point x="1051" y="1379"/>
      <point x="1458" y="971"/>
      <point x="1458" y="683" type="qcurve" smooth="yes"/>
      <point x="1458" y="395"/>
      <point x="1051" y="-14"/>
      <point x="765" y="-14" type="qcurve" smooth="yes"/>
      <point x="476" y="-14"/>
      <point x="68" y="394"/>
      <point x="68" y="683" type="qcurve" smooth="yes"/>
      <point x="68" y="971"/>
      <point x="476" y="1379"/>
    </contour>
    <contour>
      <point x="764" y="1307" type="qcurve" smooth="yes"/>
      <point x="511" y="1307"/>
      <point x="153" y="942"/>
      <point x="153" y="683" type="qcurve" smooth="yes"/>
      <point x="153" y="424"/>
      <point x="511" y="58"/>
      <point x="764" y="58" type="qcurve" smooth="yes"/>
      <point x="1016" y="58"/>
      <point x="1373" y="424"/>
      <point x="1373" y="683" type="qcurve" smooth="yes"/>
      <point x="1373" y="942"/>
      <point x="1017" y="1307"/>
    </contour>
  </outline>
</glyph>
<glyph name="guillemotleft" format="1">
  <advance width="915"/>
  <unicode hex="00AB"/>
  <outline>
    <contour>
      <point x="348" y="1047" type="line"/>
      <point x="453" y="983" type="line"/>
      <point x="238" y="525" type="line"/>
      <point x="476" y="66" type="line"/>
      <point x="377" y="0" type="line"/>
      <point x="102" y="525" type="line"/>
    </contour>
    <contour>
      <point x="684" y="1047" type="line"/>
      <point x="789" y="983" type="line"/>
      <point x="574" y="525" type="line"/>
      <point x="812" y="66" type="line"/>
      <point x="713" y="0" type="line"/>
      <point x="438" y="525" type="line"/>
    </contour>
  </outline>
</glyph>
<glyph name="logicalnot" format="1">
  <advance width="887"/>
  <unicode hex="00AC"/>
  <outline>
    <contour>
      <point x="747" y="0" type="line"/>
      <point x="747" y="416" type="line"/>
      <point x="0" y="416" type="line"/>
      <point x="0" y="546" type="line"/>
      <point x="887" y="546" type="line"/>
      <point x="887" y="0" type="line"/>
    </contour>
  </outline>
</glyph>
<glyph name="registered" format="1">
  <advance width="1527"/>
  <unicode hex="00AE"/>
  <outline>
    <contour>
      <point x="452" y="300" type="line"/>
      <point x="452" y="1079" type="line"/>
      <point x="836" y="1079" type="line" smooth="yes"/>
      <point x="1074" y="1079"/>
      <point x="1074" y="851" type="qcurve" smooth="yes"/>
      <point x="1074" y="685"/>
      <point x="967" y="649" type="qcurve"/>
      <point x="1063" y="616"/>
      <point x="1063" y="499" type="qcurve" smooth="yes"/>
      <point x="1063" y="300" type="line"/>
      <point x="961" y="300" type="line"/>
      <point x="961" y="479" type="line" smooth="yes"/>
      <point x="961" y="604"/>
      <point x="847" y="604" type="qcurve" smooth="yes"/>
      <point x="818" y="604" type="line"/>
      <point x="554" y="604" type="line"/>
      <point x="554" y="300" type="line"/>
    </contour>
    <contour>
      <point x="554" y="696" type="line"/>
      <point x="806" y="696" type="line" smooth="yes"/>
      <point x="972" y="696"/>
      <point x="972" y="830" type="qcurve" smooth="yes"/>
      <point x="972" y="929"/>
      <point x="922" y="987"/>
      <point x="837" y="987" type="qcurve" smooth="yes"/>
      <point x="554" y="987" type="line"/>
    </contour>
    <contour>
      <point x="765" y="1379" type="qcurve" smooth="yes"/>
      <point x="1051" y="1379"/>
      <point x="1458" y="971"/>
      <point x="1458" y="683" type="qcurve" smooth="yes"/>
      <point x="1458" y="395"/>
      <point x="1051" y="-14"/>
      <point x="765" y="-14" type="qcurve" smooth="yes"/>
      <point x="476" y="-14"/>
      <point x="68" y="394"/>
      <point x="68" y="683" type="qcurve" smooth="yes"/>
      <point x="68" y="971"/>
      <point x="476" y="1379"/>
    </contour>
    <contour>
      <point x="764" y="1307" type="qcurve" smooth="yes"/>
      <point x="511" y="1307"/>
      <point x="153" y="942"/>
      <point x="153" y="683" type="qcurve" smooth="yes"/>
      <point x="153" y="424"/>
      <point x="511" y="58"/>
      <point x="764" y="58" type="qcurve" smooth="yes"/>
      <point x="1016" y="58"/>
      <point x="1373" y="424"/>
      <point x="1373" y="683" type="qcurve" smooth="yes"/>
      <point x="1373" y="942"/>
      <point x="1017" y="1307"/>
    </contour>
  </outline>
</glyph>
<glyph name="degree" format="1">
  <advance width="749"/>
  <unicode hex="00B0"/>
  <outline>
    <contour>
      <point x="375" y="1381" type="qcurve" smooth="yes"/>
      <point x="491" y="1381"/>
      <point x="656" y="1219"/>
      <point x="656" y="1105" type="qcurve" smooth="yes"/>
      <point x="656" y="991"/>
      <point x="491" y="829"/>
      <point x="375" y="829" type="qcurve" smooth="yes"/>
      <point x="258" y="829"/>
      <point x="93" y="991"/>
      <point x="93" y="1105" type="qcurve" smooth="yes"/>
      <point x="93" y="1220"/>
      <point x="258" y="1381"/>
    </contour>
    <contour>
      <point x="375" y="1297" type="qcurve" smooth="yes"/>
      <point x="178" y="1297"/>
      <point x="178" y="1105" type="qcurve" smooth="yes"/>
      <point x="178" y="913"/>
      <point x="375" y="913" type="qcurve" smooth="yes"/>
      <point x="571" y="913"/>
      <point x="571" y="1105" type="qcurve" smooth="yes"/>
      <point x="571" y="1297"/>
    </contour>
  </outline>
</glyph>
<glyph name="mu" format="1">
  <advance width="825"/>
  <unicode hex="00B5"/>
  <outline>
    <contour>
      <point x="0" y="-342" type="line"/>
      <point x="0" y="983" type="line"/>
      <point x="140" y="983" type="line"/>
      <point x="140" y="424" type="line" smooth="yes"/>
      <point x="140" y="83"/>
      <point x="408" y="83" type="qcurve" smooth="yes"/>
      <point x="685" y="83"/>
      <point x="685" y="443" type="qcurve" smooth="yes"/>
      <point x="685" y="983" type="line"/>
      <point x="825" y="983" type="line"/>
      <point x="825" y="0" type="line"/>
      <point x="685" y="0" type="line"/>
      <point x="685" y="180" type="line"/>
      <point x="593" y="-26"/>
      <point x="405" y="-26" type="qcurve" smooth="yes"/>
      <point x="236" y="-26"/>
      <point x="140" y="126" type="qcurve"/>
      <point x="140" y="-342" type="line"/>
    </contour>
  </outline>
</glyph>
<glyph name="cedilla" format="1">
  <advance width="1024"/>
  <unicode hex="00B8"/>
  <outline>
    <contour>
      <point x="524" y="-100" type="line"/>
      <point x="621" y="-154" type="line"/>
      <point x="482" y="-349" type="line"/>
      <point x="403" y="-307" type="line"/>
    </contour>
  </outline>
</glyph>
<glyph name="onesuperior" format="1">
  <advance width="817"/>
  <unicode hex="00B9"/>
  <outline>
    <contour>
      <point x="526" y="1365" type="line"/>
      <point x="526" y="546" type="line"/>
      <point x="424" y="546" type="line"/>
      <point x="424" y="1273" type="line"/>
      <point x="211" y="1053" type="line"/>
      <point x="140" y="1116" type="line"/>
      <point x="385" y="1365" type="line"/>
    </contour>
  </outline>
</glyph>
<glyph name="ordmasculine" format="1">
  <advance width="837"/>
  <unicode hex="00BA"/>
  <outline>
    <contour>
      <point x="419" y="1386" type="qcurve" smooth="yes"/>
      <point x="585" y="1386"/>
      <point x="686" y="1277"/>
      <point x="686" y="1098" type="qcurve" smooth="yes"/>
      <point x="686" y="920"/>
      <point x="585" y="811"/>
      <point x="419" y="811" type="qcurve" smooth="yes"/>
      <point x="253" y="811"/>
      <point x="152" y="920"/>
      <point x="152" y="1099" type="qcurve" smooth="yes"/>
      <point x="152" y="1277"/>
      <point x="253" y="1386"/>
    </contour>
    <contour>
      <point x="419" y="1297" type="qcurve" smooth="yes"/>
      <point x="316" y="1297"/>
      <point x="268" y="1234"/>
      <point x="268" y="1099" type="qcurve" smooth="yes"/>
      <point x="268" y="962"/>
      <point x="315" y="900"/>
      <point x="419" y="900" type="qcurve" smooth="yes"/>
      <point x="522" y="900"/>
      <point x="570" y="963"/>
      <point x="570" y="1099" type="qcurve" smooth="yes"/>
      <point x="570" y="1234"/>
      <point x="522" y="1297"/>
    </contour>
    <contour>
      <point x="134" y="724" type="line"/>
      <point x="706" y="724" type="line"/>
      <point x="706" y="642" type="line"/>
      <point x="132" y="642" type="line"/>
    </contour>
  </outline>
</glyph>
<glyph name="guillemotright" format="1">
  <advance width="915"/>
  <unicode hex="00BB"/>
  <outline>
    <contour>
      <point x="566" y="1047" type="line"/>
      <point x="812" y="525" type="line"/>
      <point x="537" y="0" type="line"/>
      <point x="438" y="66" type="line"/>
      <point x="676" y="525" type="line"/>
      <point x="461" y="983" type="line"/>
    </contour>
    <contour>
      <point x="230" y="1047" type="line"/>
      <point x="476" y="525" type="line"/>
      <point x="201" y="0" type="line"/>
      <point x="102" y="66" type="line"/>
      <point x="340" y="525" type="line"/>
      <point x="125" y="983" type="line"/>
    </contour>
  </outline>
</glyph>
<glyph name="Eth" format="1">
  <advance width="1337"/>
  <unicode hex="00D0"/>
  <outline>
    <contour>
      <point x="130" y="640" type="line"/>
      <point x="0" y="640" type="line"/>
      <point x="0" y="756" type="line"/>
      <point x="130" y="756" type="line"/>
      <point x="130" y="1365" type="line"/>
      <point x="760" y="1365" type="line" smooth="yes"/>
      <point x="1054" y="1365"/>
      <point x="1262" y="1107"/>
      <point x="1262" y="742" type="qcurve" smooth="yes"/>
      <point x="1262" y="298"/>
      <point x="1076" y="0"/>
      <point x="799" y="0" type="qcurve" smooth="yes"/>
      <point x="130" y="0" type="line"/>
    </contour>
    <contour>
      <point x="284" y="640" type="line"/>
      <point x="284" y="130" type="line"/>
      <point x="727" y="130" type="line" smooth="yes"/>
      <point x="973" y="130"/>
      <point x="1115" y="326"/>
      <point x="1115" y="665" type="qcurve" smooth="yes"/>
      <point x="1115" y="1037"/>
      <point x="991" y="1235"/>
      <point x="759" y="1235" type="qcurve" smooth="yes"/>
      <point x="284" y="1235" type="line"/>
      <point x="284" y="756" type="line"/>
      <point x="718" y="756" type="line"/>
      <point x="718" y="640" type="line"/>
    </contour>
  </outline>
</glyph>
<glyph name="Thorn" format="1">
  <advance width="1208"/>
  <unicode hex="00DE"/>
  <outline>
    <contour>
      <point x="130" y="0" type="line"/>
      <point x="130" y="1365" type="line"/>
      <point x="284" y="1365" type="line"/>
      <point x="284" y="1174" type="line"/>
      <point x="703" y="1174" type="line"/>
      <point x="755" y="1174" type="line" smooth="yes"/>
      <point x="986" y="1174"/>
      <point x="1154" y="996"/>
      <point x="1154" y="751" type="qcurve" smooth="yes"/>
      <point x="1154" y="515"/>
      <point x="979" y="345"/>
      <point x="738" y="345" type="qcurve"/>
      <point x="678" y="344" type="line"/>
      <point x="284" y="344" type="line"/>
      <point x="284" y="0" type="line"/>
    </contour>
    <contour>
      <point x="284" y="474" type="line"/>
      <point x="649" y="474" type="line" smooth="yes"/>
      <point x="879" y="474"/>
      <point x="1007" y="569"/>
      <point x="1007" y="738" type="qcurve" smooth="yes"/>
      <point x="1007" y="937"/>
      <point x="920" y="1043"/>
      <point x="757" y="1043" type="qcurve" smooth="yes"/>
      <point x="698" y="1044" type="line"/>
      <point x="284" y="1044" type="line"/>
    </contour>
  </outline>
</glyph>
<glyph name="icircumflex" format="1">
  <advance width="385"/>
  <unicode hex="00EE"/>
  <outline>
    <contour>
      <point x="263" y="956" type="line"/>
      <point x="263" y="0" type="line"/>
      <point x="123" y="0" type="line"/>
      <point x="123" y="956" type="line"/>
    </contour>
    <contour>
      <point x="192" y="1353" type="line"/>
      <point x="428" y="1144" type="line"/>
      <point x="371" y="1073" type="line"/>
      <point x="192" y="1225" type="line"/>
      <point x="14" y="1073" type="line"/>
      <point x="-43" y="1144" type="line"/>
    </contour>
  </outline>
</glyph>
<glyph name="divide" format="1">
  <advance width="1256"/>
  <unicode hex="00F7"/>
  <outline>
    <contour>
      <point x="628" y="1109" type="qcurve" smooth="yes"/>
      <point x="721" y="1109"/>
      <point x="721" y="1017" type="qcurve" smooth="yes"/>
      <point x="721" y="924"/>
      <point x="628" y="924" type="qcurve" smooth="yes"/>
      <point x="536" y="924"/>
      <point x="536" y="1017" type="qcurve" smooth="yes"/>
      <point x="536" y="1109"/>
    </contour>
    <contour>
      <point x="628" y="442" type="qcurve" smooth="yes"/>
      <point x="721" y="442"/>
      <point x="721" y="350" type="qcurve" smooth="yes"/>
      <point x="721" y="257"/>
      <point x="628" y="257" type="qcurve" smooth="yes"/>
      <point x="536" y="257"/>
      <point x="536" y="350" type="qcurve" smooth="yes"/>
      <point x="536" y="442"/>
    </contour>
    <contour>
      <point x="155" y="747" type="line"/>
      <point x="1101" y="747" type="line"/>
      <point x="1101" y="617" type="line"/>
      <point x="155" y="617" type="line"/>
    </contour>
  </outline>
</glyph>
<glyph name="OE" format="1">
  <advance width="2020"/>
  <unicode hex="0152"/>
  <outline>
    <contour>
      <point x="1233" y="1223" type="line"/>
      <point x="1233" y="770" type="line"/>
      <point x="1922" y="770" type="line"/>
      <point x="1922" y="640" type="line"/>
      <point x="1233" y="640" type="line"/>
      <point x="1233" y="135" type="line"/>
      <point x="1952" y="135" type="line"/>
      <point x="1952" y="5" type="line"/>
      <point x="1084" y="5" type="line"/>
      <point x="1088" y="135" type="line"/>
      <point x="1084" y="135" type="line"/>
      <point x="992" y="-14"/>
      <point x="675" y="-14" type="qcurve" smooth="yes"/>
      <point x="297" y="-14"/>
      <point x="76" y="184"/>
      <point x="76" y="523" type="qcurve" smooth="yes"/>
      <point x="76" y="1048"/>
      <point x="116" y="1153" type="qcurve" smooth="yes"/>
      <point x="202" y="1379"/>
      <point x="631" y="1379" type="qcurve" smooth="yes"/>
      <point x="996" y="1379"/>
      <point x="1084" y="1223" type="qcurve"/>
      <point x="1088" y="1223" type="line"/>
      <point x="1084" y="1353" type="line"/>
      <point x="1952" y="1353" type="line"/>
      <point x="1952" y="1223" type="line"/>
    </contour>
    <contour>
      <point x="581" y="1249" type="qcurve" smooth="yes"/>
      <point x="322" y="1249"/>
      <point x="223" y="1082"/>
      <point x="223" y="646" type="qcurve" smooth="yes"/>
      <point x="223" y="505" type="line" smooth="yes"/>
      <point x="223" y="401"/>
      <point x="233" y="329" type="qcurve" smooth="yes"/>
      <point x="250" y="196"/>
      <point x="403" y="116"/>
      <point x="638" y="116" type="qcurve" smooth="yes"/>
      <point x="924" y="116"/>
      <point x="1074" y="234"/>
      <point x="1074" y="459" type="qcurve" smooth="yes"/>
      <point x="1075" y="674" type="line"/>
      <point x="1079" y="884" type="line"/>
      <point x="1072" y="1025" type="line"/>
      <point x="1056" y="1173"/>
      <point x="891" y="1249"/>
    </contour>
  </outline>
</glyph>
<glyph name="macron" format="1">
  <advance width="1023"/>
  <unicode hex="02C9"/>
  <outline>
    <contour>
      <point x="261" y="1246" type="line"/>
      <point x="763" y="1246" type="line"/>
      <point x="763" y="1130" type="line"/>
      <point x="261" y="1130" type="line"/>
    </contour>
  </outline>
</glyph>
<glyph name="ogonek" format="1">
  <advance width="1024"/>
  <unicode hex="02DB"/>
  <outline>
    <contour>
      <point x="671" y="0" type="qcurve"/>
      <point x="775" y="0" type="line"/>
      <point x="618" y="-90"/>
      <point x="618" y="-170" type="qcurve" smooth="yes"/>
      <point x="618" y="-263"/>
      <point x="743" y="-263" type="qcurve" smooth="yes"/>
      <point x="781" y="-263"/>
      <point x="819" y="-245" type="qcurve"/>
      <point x="819" y="-335" type="line"/>
      <point x="768" y="-352"/>
      <point x="726" y="-352" type="qcurve" smooth="yes"/>
      <point x="533" y="-352"/>
      <point x="533" y="-193" type="qcurve" smooth="yes"/>
      <point x="533" y="-79"/>
    </contour>
  </outline>
</glyph>
<glyph name="quoteright" format="1">
  <advance width="406"/>
  <unicode hex="2019"/>
  <outline>
    <contour>
      <point x="297" y="1365" type="line"/>
      <point x="297" y="1166" type="line" smooth="yes"/>
      <point x="297" y="979"/>
      <point x="161" y="979" type="qcurve" smooth="yes"/>
      <point x="149" y="979"/>
      <point x="123" y="981" type="qcurve"/>
      <point x="123" y="1058" type="line"/>
      <point x="209" y="1063"/>
      <point x="209" y="1146" type="qcurve" smooth="yes"/>
      <point x="208" y="1181" type="line"/>
      <point x="143" y="1181" type="line"/>
      <point x="143" y="1365" type="line"/>
    </contour>
  </outline>
</glyph>
<glyph name="quotesinglbase" format="1">
  <advance width="406"/>
  <unicode hex="201A"/>
  <outline>
    <contour>
      <point x="283" y="184" type="line"/>
      <point x="283" y="-14" type="line" smooth="yes"/>
      <point x="283" y="-201"/>
      <point x="147" y="-201" type="qcurve" smooth="yes"/>
      <point x="134" y="-201"/>
      <point x="109" y="-199" type="qcurve"/>
      <point x="109" y="-123" type="line"/>
      <point x="195" y="-118"/>
      <point x="195" y="-35" type="qcurve" smooth="yes"/>
      <point x="194" y="0" type="line"/>
      <point x="129" y="0" type="line"/>
      <point x="129" y="184" type="line"/>
    </contour>
  </outline>
</glyph>
<glyph name="quotedblleft" format="1">
  <advance width="653"/>
  <unicode hex="201C"/>
  <outline>
    <contour>
      <point x="381" y="1008" type="line"/>
      <point x="381" y="1207" type="line" smooth="yes"/>
      <point x="381" y="1393"/>
      <point x="517" y="1393" type="qcurve" smooth="yes"/>
      <point x="528" y="1393"/>
      <point x="555" y="1391" type="qcurve"/>
      <point x="555" y="1314" type="line"/>
      <point x="469" y="1309"/>
      <point x="469" y="1227" type="qcurve" smooth="yes"/>
      <point x="470" y="1192" type="line"/>
      <point x="535" y="1192" type="line"/>
      <point x="535" y="1008" type="line"/>
    </contour>
    <contour>
      <point x="86" y="1008" type="line"/>
      <point x="86" y="1207" type="line" smooth="yes"/>
      <point x="86" y="1393"/>
      <point x="222" y="1393" type="qcurve" smooth="yes"/>
      <point x="237" y="1393"/>
      <point x="268" y="1391" type="qcurve"/>
      <point x="268" y="1314" type="line"/>
      <point x="174" y="1314"/>
      <point x="174" y="1227" type="qcurve" smooth="yes"/>
      <point x="175" y="1192" type="line"/>
      <point x="240" y="1192" type="line"/>
      <point x="240" y="1008" type="line"/>
    </contour>
  </outline>
</glyph>
<glyph name="quotedblright" format="1">
  <advance width="653"/>
  <unicode hex="201D"/>
  <outline>
    <contour>
      <point x="272" y="1365" type="line"/>
      <point x="272" y="1166" type="line" smooth="yes"/>
      <point x="272" y="979"/>
      <point x="136" y="979" type="qcurve" smooth="yes"/>
      <point x="124" y="979"/>
      <point x="98" y="981" type="qcurve"/>
      <point x="98" y="1058" type="line"/>
      <point x="184" y="1063"/>
      <point x="184" y="1146" type="qcurve" smooth="yes"/>
      <point x="183" y="1181" type="line"/>
      <point x="118" y="1181" type="line"/>
      <point x="118" y="1365" type="line"/>
    </contour>
    <contour>
      <point x="567" y="1365" type="line"/>
      <point x="567" y="1166" type="line" smooth="yes"/>
      <point x="567" y="979"/>
      <point x="431" y="979" type="qcurve" smooth="yes"/>
      <point x="415" y="979"/>
      <point x="385" y="981" type="qcurve"/>
      <point x="385" y="1058" type="line"/>
      <point x="479" y="1058"/>
      <point x="479" y="1146" type="qcurve" smooth="yes"/>
      <point x="478" y="1181" type="line"/>
      <point x="413" y="1181" type="line"/>
      <point x="413" y="1365" type="line"/>
    </contour>
  </outline>
</glyph>
<glyph name="dagger" format="1">
  <advance width="1256"/>
  <unicode hex="2020"/>
  <outline>
    <contour>
      <point x="706" y="1365" type="line"/>
      <point x="706" y="990" type="line"/>
      <point x="1019" y="990" type="line"/>
      <point x="1019" y="874" type="line"/>
      <point x="706" y="874" type="line"/>
      <point x="706" y="-410" type="line"/>
      <point x="552" y="-410" type="line"/>
      <point x="552" y="874" type="line"/>
      <point x="236" y="874" type="line"/>
      <point x="236" y="990" type="line"/>
      <point x="552" y="990" type="line"/>
      <point x="552" y="1365" type="line"/>
    </contour>
  </outline>
</glyph>
<glyph name="daggerdbl" format="1">
  <advance width="1256"/>
  <unicode hex="2021"/>
  <outline>
    <contour>
      <point x="706" y="1365" type="line"/>
      <point x="706" y="990" type="line"/>
      <point x="1019" y="990" type="line"/>
      <point x="1019" y="874" type="line"/>
      <point x="706" y="874" type="line"/>
      <point x="706" y="82" type="line"/>
      <point x="1019" y="82" type="line"/>
      <point x="1019" y="-34" type="line"/>
      <point x="706" y="-34" type="line"/>
      <point x="706" y="-410" type="line"/>
      <point x="552" y="-410" type="line"/>
      <point x="552" y="-34" type="line"/>
      <point x="236" y="-34" type="line"/>
      <point x="236" y="82" type="line"/>
      <point x="552" y="82" type="line"/>
      <point x="552" y="874" type="line"/>
      <point x="236" y="874" type="line"/>
      <point x="236" y="990" type="line"/>
      <point x="552" y="990" type="line"/>
      <point x="552" y="1365" type="line"/>
    </contour>
  </outline>
</glyph>
<glyph name="bullet" format="1">
  <advance width="568"/>
  <unicode hex="2022"/>
  <outline>
    <contour>
      <point x="286" y="978" type="qcurve" smooth="yes"/>
      <point x="403" y="978"/>
      <point x="568" y="811"/>
      <point x="568" y="694" type="qcurve" smooth="yes"/>
      <point x="568" y="577"/>
      <point x="402" y="410"/>
      <point x="286" y="410" type="qcurve" smooth="yes"/>
      <point x="168" y="410"/>
      <point x="0" y="577"/>
      <point x="0" y="694" type="qcurve" smooth="yes"/>
      <point x="0" y="812"/>
      <point x="167" y="978"/>
    </contour>
  </outline>
</glyph>
<glyph name="guilsinglright" format="1">
  <advance width="578"/>
  <unicode hex="203A"/>
  <outline>
    <contour>
      <point x="230" y="1047" type="line"/>
      <point x="476" y="525" type="line"/>
      <point x="201" y="0" type="line"/>
      <point x="102" y="66" type="line"/>
      <point x="340" y="525" type="line"/>
      <point x="125" y="983" type="line"/>
    </contour>
  </outline>
</glyph>
<glyph name="trademark" format="1">
  <advance width="1630"/>
  <unicode hex="2122"/>
  <outline>
    <contour>
      <point x="357" y="1273" type="line"/>
      <point x="357" y="587" type="line"/>
      <point x="255" y="587" type="line"/>
      <point x="255" y="1273" type="line"/>
      <point x="-3" y="1273" type="line"/>
      <point x="-3" y="1365" type="line"/>
      <point x="614" y="1365" type="line"/>
      <point x="614" y="1273" type="line"/>
    </contour>
    <contour>
      <point x="1562" y="1365" type="line"/>
      <point x="1562" y="587" type="line"/>
      <point x="1460" y="587" type="line"/>
      <point x="1460" y="1205" type="line"/>
      <point x="1460" y="1220" type="line"/>
      <point x="1460" y="1251" type="line"/>
      <point x="1460" y="1265" type="line" smooth="yes"/>
      <point x="1457" y="1256"/>
      <point x="1455" y="1253" type="qcurve" smooth="yes"/>
      <point x="1449" y="1238" type="line"/>
      <point x="1443" y="1224" type="line"/>
      <point x="1171" y="587" type="line"/>
      <point x="1072" y="587" type="line"/>
      <point x="800" y="1216" type="line"/>
      <point x="794" y="1228" type="line"/>
      <point x="788" y="1242" type="line" smooth="yes"/>
      <point x="786" y="1246"/>
      <point x="782" y="1257" type="qcurve"/>
      <point x="782" y="1239" type="line"/>
      <point x="782" y="1222" type="line"/>
      <point x="782" y="1205" type="line"/>
      <point x="782" y="587" type="line"/>
      <point x="680" y="587" type="line"/>
      <point x="680" y="1365" type="line"/>
      <point x="846" y="1365" type="line"/>
      <point x="1059" y="866" type="line"/>
      <point x="1093" y="786" type="line"/>
      <point x="1109" y="746" type="line"/>
      <point x="1120" y="720" type="line"/>
      <point x="1129" y="739"/>
      <point x="1132" y="746" type="qcurve" smooth="yes"/>
      <point x="1148" y="786" type="line"/>
      <point x="1182" y="866" type="line"/>
      <point x="1394" y="1365" type="line"/>
    </contour>
  </outline>
</glyph>
<glyph name="Omega" format="1">
  <advance width="1249"/>
  <unicode hex="2126"/>
  <outline>
    <contour>
      <point x="0" y="0" type="line"/>
      <point x="0" y="130" type="line"/>
      <point x="375" y="130" type="line"/>
      <point x="0" y="347"/>
      <point x="0" y="745" type="qcurve" smooth="yes"/>
      <point x="0" y="1020"/>
      <point x="362" y="1398"/>
      <point x="625" y="1398" type="qcurve" smooth="yes"/>
      <point x="888" y="1398"/>
      <point x="1249" y="1020"/>
      <point x="1249" y="745" type="qcurve" smooth="yes"/>
      <point x="1249" y="346"/>
      <point x="874" y="130" type="qcurve"/>
      <point x="1249" y="130" type="line"/>
      <point x="1249" y="0" type="line"/>
      <point x="713" y="0" type="line"/>
      <point x="713" y="118" type="line"/>
      <point x="1102" y="340"/>
      <point x="1102" y="728" type="qcurve" smooth="yes"/>
      <point x="1102" y="953"/>
      <point x="824" y="1268"/>
      <point x="625" y="1268" type="qcurve" smooth="yes"/>
      <point x="423" y="1268"/>
      <point x="147" y="956"/>
      <point x="147" y="727" type="qcurve" smooth="yes"/>
      <point x="147" y="338"/>
      <point x="536" y="118" type="qcurve"/>
      <point x="536" y="0" type="line"/>
    </contour>
  </outline>
</glyph>
<glyph name="product" format="1">
  <advance width="1277"/>
  <unicode hex="220F"/>
  <outline>
    <contour>
      <point x="0" y="1536" type="line"/>
      <point x="1277" y="1536" type="line"/>
      <point x="1277" y="1406" type="line"/>
      <point x="1114" y="1406" type="line"/>
      <point x="1114" y="-382" type="line"/>
      <point x="1277" y="-382" type="line"/>
      <point x="1277" y="-512" type="line"/>
      <point x="806" y="-512" type="line"/>
      <point x="806" y="-382" type="line"/>
      <point x="974" y="-382" type="line"/>
      <point x="974" y="1406" type="line"/>
      <point x="302" y="1406" type="line"/>
      <point x="302" y="-382" type="line"/>
      <point x="471" y="-382" type="line"/>
      <point x="471" y="-512" type="line"/>
      <point x="0" y="-512" type="line"/>
      <point x="0" y="-382" type="line"/>
      <point x="162" y="-382" type="line"/>
      <point x="162" y="1406" type="line"/>
      <point x="0" y="1406" type="line"/>
    </contour>
  </outline>
</glyph>
<glyph name="summation" format="1">
  <advance width="1182"/>
  <unicode hex="2211"/>
  <outline>
    <contour>
      <point x="1163" y="1536" type="line"/>
      <point x="1163" y="1072" type="line"/>
      <point x="1035" y="1072" type="line"/>
      <point x="1023" y="1406" type="line"/>
      <point x="156" y="1406" type="line"/>
      <point x="674" y="555" type="line"/>
      <point x="156" y="-382" type="line"/>
      <point x="1042" y="-382" type="line"/>
      <point x="1049" y="-48" type="line"/>
      <point x="1182" y="-48" type="line"/>
      <point x="1182" y="-512" type="line"/>
      <point x="0" y="-512" type="line"/>
      <point x="0" y="-365" type="line"/>
      <point x="510" y="555" type="line"/>
      <point x="0" y="1394" type="line"/>
      <point x="0" y="1536" type="line"/>
    </contour>
  </outline>
</glyph>
<glyph name="fraction" format="1">
  <advance width="273"/>
  <unicode hex="2215"/>
  <outline>
    <contour>
      <point x="652" y="1365" type="line"/>
      <point x="-275" y="0" type="line"/>
      <point x="-378" y="0" type="line"/>
      <point x="544" y="1365" type="line"/>
    </contour>
  </outline>
</glyph>
<glyph name="periodcentered" format="1">
  <advance width="400"/>
  <unicode hex="2219"/>
  <outline>
    <contour>
      <point x="277" y="566" type="line"/>
      <point x="277" y="382" type="line"/>
      <point x="123" y="382" type="line"/>
      <point x="123" y="566" type="line"/>
    </contour>
  </outline>
</glyph>
<glyph name="notequal" format="1">
  <advance width="888"/>
  <unicode hex="2260"/>
  <outline>
    <contour>
      <point x="490" y="910" type="line"/>
      <point x="602" y="1141" type="line"/>
      <point x="700" y="1103" type="line"/>
      <point x="608" y="910" type="line"/>
      <point x="888" y="910" type="line"/>
      <point x="888" y="785" type="line"/>
      <point x="550" y="785" type="line"/>
      <point x="458" y="592" type="line"/>
      <point x="888" y="592" type="line"/>
      <point x="888" y="467" type="line"/>
      <point x="400" y="467" type="line"/>
      <point x="286" y="230" type="line"/>
      <point x="189" y="268" type="line"/>
      <point x="283" y="467" type="line"/>
      <point x="0" y="467" type="line"/>
      <point x="0" y="592" type="line"/>
      <point x="341" y="592" type="line"/>
      <point x="433" y="785" type="line"/>
      <point x="0" y="785" type="line"/>
      <point x="0" y="910" type="line"/>
    </contour>
  </outline>
</glyph>
<glyph name="glyph240" format="1">
  <advance width="1246"/>
  <outline>
    <contour>
      <point x="627" y="1735" type="line"/>
      <point x="940" y="1553" type="line"/>
      <point x="897" y="1476" type="line"/>
      <point x="627" y="1600" type="line"/>
      <point x="344" y="1476" type="line"/>
      <point x="306" y="1553" type="line"/>
    </contour>
  </outline>
</glyph>
<glyph name="glyph241" format="1">
  <advance width="1246"/>
  <outline>
    <contour>
      <point x="867" y="1698" type="qcurve"/>
      <point x="945" y="1647" type="line"/>
      <point x="861" y="1511"/>
      <point x="757" y="1511" type="qcurve" smooth="yes"/>
      <point x="713" y="1511"/>
      <point x="619" y="1552" type="qcurve" smooth="yes"/>
      <point x="535" y="1588"/>
      <point x="496" y="1588" type="qcurve" smooth="yes"/>
      <point x="451" y="1588"/>
      <point x="410" y="1515" type="qcurve"/>
      <point x="328" y="1561" type="line"/>
      <point x="402" y="1697"/>
      <point x="501" y="1697" type="qcurve" smooth="yes"/>
      <point x="542" y="1697"/>
      <point x="637" y="1658" type="qcurve" smooth="yes"/>
      <point x="728" y="1620"/>
      <point x="760" y="1620" type="qcurve" smooth="yes"/>
      <point x="816" y="1620"/>
    </contour>
  </outline>
</glyph>
<glyph name="glyph242" format="1">
  <advance width="1246"/>
  <outline>
    <contour>
      <point x="623" y="1775" type="qcurve" smooth="yes"/>
      <point x="780" y="1775"/>
      <point x="780" y="1618" type="qcurve" smooth="yes"/>
      <point x="780" y="1461"/>
      <point x="623" y="1461" type="qcurve" smooth="yes"/>
      <point x="466" y="1461"/>
      <point x="466" y="1618" type="qcurve" smooth="yes"/>
      <point x="466" y="1775"/>
    </contour>
    <contour>
      <point x="623" y="1703" type="qcurve" smooth="yes"/>
      <point x="534" y="1703"/>
      <point x="534" y="1618" type="qcurve" smooth="yes"/>
      <point x="534" y="1533"/>
      <point x="623" y="1533" type="qcurve" smooth="yes"/>
      <point x="712" y="1533"/>
      <point x="712" y="1618" type="qcurve" smooth="yes"/>
      <point x="712" y="1703"/>
    </contour>
  </outline>
</glyph>
<glyph name="glyph245" format="1">
  <advance width="1020"/>
  <outline>
    <contour>
      <point x="364" y="1741" type="line"/>
      <point x="661" y="1555" type="line"/>
      <point x="611" y="1476" type="line"/>
      <point x="304" y="1630" type="line"/>
    </contour>
  </outline>
</glyph>
<glyph name="glyph246" format="1">
  <advance width="1020"/>
  <outline>
    <contour>
      <point x="527" y="1735" type="line"/>
      <point x="841" y="1553" type="line"/>
      <point x="798" y="1476" type="line"/>
      <point x="527" y="1600" type="line"/>
      <point x="244" y="1476" type="line"/>
      <point x="206" y="1553" type="line"/>
    </contour>
  </outline>
</glyph>
<glyph name="glyph249" format="1">
  <advance width="416"/>
  <outline>
    <contour>
      <point x="7" y="1741" type="line"/>
      <point x="305" y="1555" type="line"/>
      <point x="255" y="1476" type="line"/>
      <point x="-53" y="1630" type="line"/>
    </contour>
  </outline>
</glyph>
<glyph name="glyph251" format="1">
  <advance width="1426"/>
  <outline>
    <contour>
      <point x="958" y="1698" type="qcurve"/>
      <point x="1036" y="1647" type="line"/>
      <point x="952" y="1511"/>
      <point x="847" y="1511" type="qcurve" smooth="yes"/>
      <point x="803" y="1511"/>
      <point x="710" y="1552" type="qcurve" smooth="yes"/>
      <point x="626" y="1588"/>
      <point x="586" y="1588" type="qcurve" smooth="yes"/>
      <point x="541" y="1588"/>
      <point x="501" y="1515" type="qcurve"/>
      <point x="418" y="1561" type="line"/>
      <point x="492" y="1697"/>
      <point x="592" y="1697" type="qcurve" smooth="yes"/>
      <point x="632" y="1697"/>
      <point x="727" y="1658" type="qcurve" smooth="yes"/>
      <point x="818" y="1620"/>
      <point x="851" y="1620" type="qcurve" smooth="yes"/>
      <point x="906" y="1620"/>
    </contour>
  </outline>
</glyph>
<glyph name="glyph252" format="1">
  <advance width="1256"/>
  <outline>
    <contour>
      <point x="520" y="1660" type="line"/>
      <point x="520" y="1530" type="line"/>
      <point x="366" y="1530" type="line"/>
      <point x="366" y="1660" type="line"/>
    </contour>
    <contour>
      <point x="890" y="1660" type="line"/>
      <point x="890" y="1530" type="line"/>
      <point x="736" y="1530" type="line"/>
      <point x="736" y="1660" type="line"/>
    </contour>
  </outline>
</glyph>
<glyph name="glyph259" format="1">
  <advance width="1342"/>
  <outline>
    <contour>
      <point x="563" y="1660" type="line"/>
      <point x="563" y="1530" type="line"/>
      <point x="409" y="1530" type="line"/>
      <point x="409" y="1660" type="line"/>
    </contour>
    <contour>
      <point x="933" y="1660" type="line"/>
      <point x="933" y="1530" type="line"/>
      <point x="779" y="1530" type="line"/>
      <point x="779" y="1660" type="line"/>
    </contour>
  </outline>
</glyph>
<glyph name="glyph260" format="1">
  <advance width="1342"/>
  <outline>
    <contour>
      <point x="844" y="1741" type="line"/>
      <point x="904" y="1630" type="line"/>
      <point x="597" y="1476" type="line"/>
      <point x="547" y="1555" type="line"/>
    </contour>
  </outline>
</glyph>
<glyph name="glyph261" format="1">
  <advance width="1342"/>
  <outline>
    <contour>
      <point x="511" y="1741" type="line"/>
      <point x="809" y="1555" type="line"/>
      <point x="759" y="1476" type="line"/>
      <point x="451" y="1630" type="line"/>
    </contour>
  </outline>
</glyph>
<glyph name="glyph263" format="1">
  <advance width="1151"/>
  <outline>
    <contour>
      <point x="776" y="1741" type="line"/>
      <point x="837" y="1630" type="line"/>
      <point x="529" y="1476" type="line"/>
      <point x="479" y="1555" type="line"/>
    </contour>
  </outline>
</glyph>
<glyph name="glyph266" format="1">
  <advance width="1043"/>
  <outline>
    <contour>
      <point x="268" y="688" type="qcurve"/>
      <point x="129" y="688" type="line"/>
      <point x="129" y="855"/>
      <point x="280" y="970"/>
      <point x="500" y="970" type="qcurve" smooth="yes"/>
      <point x="739" y="970"/>
      <point x="907" y="829"/>
      <point x="907" y="631" type="qcurve" smooth="yes"/>
      <point x="907" y="0" type="line"/>
      <point x="767" y="0" type="line"/>
      <point x="778" y="103" type="line"/>
      <point x="775" y="104" type="line"/>
      <point x="695" y="-14"/>
      <point x="450" y="-14" type="qcurve" smooth="yes"/>
      <point x="88" y="-14"/>
      <point x="88" y="277" type="qcurve" smooth="yes"/>
      <point x="88" y="450"/>
      <point x="250" y="582"/>
      <point x="462" y="582" type="qcurve" smooth="yes"/>
      <point x="714" y="582"/>
      <point x="764" y="483" type="qcurve"/>
      <point x="767" y="484" type="line"/>
      <point x="767" y="600" type="line" smooth="yes"/>
      <point x="767" y="764"/>
      <point x="677" y="861"/>
      <point x="525" y="861" type="qcurve" smooth="yes"/>
      <point x="267" y="861"/>
      <point x="267" y="716" type="qcurve" smooth="yes"/>
      <point x="267" y="709"/>
    </contour>
    <contour>
      <point x="493" y="466" type="qcurve" smooth="yes"/>
      <point x="332" y="466"/>
      <point x="235" y="399"/>
      <point x="235" y="289" type="qcurve" smooth="yes"/>
      <point x="235" y="174"/>
      <point x="332" y="102"/>
      <point x="490" y="102" type="qcurve" smooth="yes"/>
      <point x="774" y="102"/>
      <point x="774" y="278" type="qcurve" smooth="yes"/>
      <point x="774" y="389"/>
      <point x="659" y="466"/>
    </contour>
  </outline>
</glyph>
